<svg id="Layer_1" enable-background="new 0 0 512.004 512.004" height="512" viewBox="0 0 512.004 512.004" width="512" xmlns="http://www.w3.org/2000/svg"><path d="m505.63 335.806-82.33-164.647c-94.529-192.864-410.846-157.515-423.3 100.61.004 70.869 29.876 132.486 72.56 175.168l12.171 12.171c2.813 2.813 6.628 4.393 10.606 4.393h315.983c55.518 0 100.684-45.167 100.684-100.684 0-9.323-2.202-18.66-6.374-27.011zm-48.963-30.838h-149.844c-15.718 0-29.85-8.735-36.881-22.797l-16.589-33.178c-2.541-5.082-7.735-8.292-13.417-8.292h-32.133c-22.663-.9-22.788-33.322 0-34.267h199.597zm-45.347 128.533h-309.77l-7.777-7.777c-38.17-38.17-63.769-92.504-63.769-153.973 0-106.889 86.961-193.85 193.867-193.85 113.021 0 162.995 89.113 168.281 98.533h-184.349c-62.494 2.46-62.529 91.719 0 94.267h22.863l12.443 24.886c12.146 24.291 36.56 39.38 63.714 39.38h164.845l7.129 14.252c2.098 4.201 3.207 8.903 3.207 13.597 0 38.977-31.709 70.685-70.684 70.685z"/></svg>