<svg id="Layer_1" enable-background="new 0 0 512 512" height="512" viewBox="0 0 512 512" width="512" xmlns="http://www.w3.org/2000/svg"><path d="m450.782 162.764 4.231-4.231h41.987c19.902-.793 19.887-29.215 0-30h-48.2c-3.979 0-7.794 1.581-10.606 4.394l-14.97 14.971-8.388-25.167c-11.616-34.969-44.196-58.463-81.072-58.463h-155.527c-36.876 0-69.456 23.495-81.067 58.449l-8.393 25.182-14.97-14.971c-2.812-2.813-6.628-4.394-10.606-4.394h-48.201c-19.902.793-19.887 29.215 0 30h41.987l4.231 4.231c-35.037 8.193-61.218 39.67-61.218 77.168v160.667c0 25.989 21.145 47.133 47.134 47.133h48.199c25.989 0 47.134-21.144 47.134-47.133v-17.133h227.066v17.133c0 25.989 21.145 47.133 47.134 47.133h48.199c25.989 0 47.134-21.144 47.134-47.133v-160.667c0-37.498-26.181-68.975-61.218-77.169zm-325.146-30.577c7.534-22.681 28.673-37.92 52.602-37.92h155.525c23.929 0 45.067 15.239 52.606 37.935l9.487 28.465h-53.749c-12.443-10.274-28.355-16.066-44.575-16.066h-83.064c-16.22 0-32.132 5.792-44.575 16.066h-53.749zm-95.636 122.746h49.267c22.728.894 22.734 33.37 0 34.267h-49.267zm82.467 145.667c0 9.447-7.687 17.133-17.134 17.133h-48.199c-9.447 0-17.134-7.686-17.134-17.133v-17.133h82.467zm96.399-47.133h-32.281l10.433-83.526c1.067-8.556 8.379-15.007 17.007-15.007h4.842v98.533zm64.268 0h-34.268v-98.534h34.268zm30 0v-98.534h4.842c8.628 0 15.939 6.452 17.007 15.007.001.002.001.004.001.007l10.432 83.52zm178.866 47.133c0 9.447-7.687 17.133-17.134 17.133h-48.199c-9.447 0-17.134-7.686-17.134-17.133v-17.133h82.467zm0-47.133h-116.353l-10.896-87.25c-2.942-23.535-23.051-41.284-46.775-41.284h-103.952c-23.728 0-43.837 17.751-46.775 41.284l-10.896 87.25h-116.353v-34.267h49.267c62.559-2.547 62.507-91.746 0-94.267h-46.924c6.361-19.852 24.987-34.267 46.924-34.267h96.4c3.98 0 7.798-1.582 10.611-4.397 7.409-7.416 17.684-11.669 28.189-11.669h83.064c10.506 0 20.78 4.253 28.189 11.669 2.813 2.815 6.631 4.397 10.611 4.397h96.4c21.937 0 40.563 14.415 46.924 34.267h-46.924c-62.558 2.547-62.508 91.746 0 94.267h49.269zm0-64.267h-49.267c-22.724-.892-22.738-33.368 0-34.267h49.267z"/></svg>