<svg id="Layer_1" enable-background="new 0 0 511.343 511.343" height="512" viewBox="0 0 511.343 511.343" width="512" xmlns="http://www.w3.org/2000/svg"><g><path d="m409.986 43.343c-4.501-3.609-10.673-4.318-15.874-1.822-5.202 2.496-8.511 7.754-8.511 13.523v9.973c-155.399-120.513-386.584-6.488-385.598 190.655-.99 197.129 230.232 311.176 385.598 190.649v9.973c0 5.77 3.309 11.027 8.511 13.523 7.223 3.466 13.491.089 15.874-1.822 135.153-104.473 135.133-320.193 0-424.652zm-24.385 114.242c-96.266-141.943-319.941-75.751-321.332 98.087 1.397 173.848 225.099 240.017 321.333 98.083v53.03c-131.555 128.137-356.124 32.649-355.599-151.118-.526-183.76 224.075-279.257 355.598-151.112zm0 98.085c0 80.321-65.346 145.666-145.667 145.666-193.246-8.001-193.19-283.361.001-291.333 80.321 0 145.666 65.346 145.666 145.667zm30 166.518v-333.037c87.914 88.917 87.907 244.125 0 333.037z"/><path d="m239.935 208.536c-25.989 0-47.133 21.144-47.133 47.133 2.589 62.529 91.687 62.511 94.267 0-.001-25.989-21.144-47.133-47.134-47.133zm0 64.267c-9.447 0-17.133-7.686-17.133-17.133.941-22.73 33.329-22.723 34.267 0-.001 9.447-7.687 17.133-17.134 17.133z"/><path d="m239.935 174.269c8.28 0 15-6.72 15-15-.796-19.896-29.207-19.89-30 0 0 8.281 6.72 15 15 15z"/><path d="m148.25 210.882c-8.28 0-15 6.72-15 15 .796 19.896 29.207 19.89 30 0 0-8.28-6.719-15-15-15z"/><path d="m183.276 318.657c-8.28 0-15 6.72-15 15 .811 19.901 29.187 19.896 30 0 0-8.28-6.728-15-15-15z"/><path d="m331.62 210.882c-8.28 0-15 6.72-15 15 .796 19.896 29.207 19.89 30 0 0-8.28-6.72-15-15-15z"/><path d="m296.594 318.657c-8.272 0-15 6.72-15 15 .816 19.901 29.192 19.895 30 0 0-8.28-6.72-15-15-15z"/></g></svg>