<svg id="Layer_1" enable-background="new 0 0 512 512" height="512" viewBox="0 0 512 512" width="512" xmlns="http://www.w3.org/2000/svg"><path d="m479.418 493.362-16.066-64.267c-1.669-6.677-7.669-11.362-14.552-11.362h-44.522l-101.592-406.371c-1.669-6.677-7.669-11.362-14.552-11.362h-64.268c-6.883 0-12.883 4.685-14.552 11.362l-101.592 406.371h-44.522c-6.883 0-12.883 4.685-14.552 11.362l-16.066 64.267c-1.121 4.481-.114 9.228 2.729 12.869s7.204 5.769 11.823 5.769h417.732c4.619 0 8.98-2.128 11.823-5.769s3.85-8.388 2.729-12.869zm-243.84-463.362h40.844l24.633 98.533h-90.109zm-32.133 128.533h105.109l8.566 34.267h-122.241zm-16.066 64.267h137.242l8.567 34.267h-154.376zm-16.067 64.267h169.377l8.566 34.267h-186.51zm-16.067 64.266h201.51l16.6 66.4h-234.709zm-88.899 130.667 8.566-34.267h362.176l8.566 34.267z"/></svg>