<svg id="Layer_1" enable-background="new 0 0 512 512" height="512" viewBox="0 0 512 512" width="512" xmlns="http://www.w3.org/2000/svg"><path d="m462.163 350.06c-1.646-1.647-3.654-2.887-5.864-3.624l-64.804-21.599-68.837-68.837 68.837-68.838 64.804-21.599c2.21-.736 4.217-1.977 5.864-3.624l45.444-45.445c5.858-5.858 5.858-15.355 0-21.213l-90.89-90.888c-5.858-5.858-15.355-5.858-21.213 0l-45.444 45.445c-1.647 1.647-2.887 3.654-3.624 5.864l-21.599 64.803-68.837 68.837-68.838-68.838-21.599-64.803c-.736-2.21-1.977-4.217-3.624-5.864l-45.443-45.444c-5.858-5.858-15.355-5.858-21.213 0l-90.89 90.89c-5.858 5.858-5.858 15.355 0 21.213l45.444 45.445c1.646 1.647 3.654 2.887 5.864 3.624l64.804 21.599 68.837 68.836-68.838 68.838-64.804 21.599c-2.21.736-4.217 1.977-5.864 3.624l-45.443 45.443c-5.858 5.858-5.858 15.355 0 21.213l90.889 90.889c5.858 5.858 15.355 5.858 21.213 0l45.444-45.444c1.647-1.647 2.887-3.654 3.624-5.864l21.599-64.803 68.838-68.837 68.838 68.838 21.599 64.803c.736 2.21 1.977 4.217 3.624 5.864l45.444 45.444c5.858 5.858 15.355 5.858 21.213 0l90.889-90.889c5.858-5.858 5.858-15.355 0-21.213zm-56.052-313.847 69.676 69.676-24.231 24.232-69.676-69.677zm-38.889 52 56.564 56.564-36.343 12.112-32.334-32.335zm-331.009 17.676 69.676-69.676 24.231 24.231-69.676 69.676zm52 38.889 56.564-56.564 12.113 36.342-32.334 32.335zm17.676 331.009-69.676-69.676 24.231-24.232 69.676 69.676zm38.889-52-56.564-56.564 36.343-12.112 32.334 32.335zm193.17-61.607-71.342-71.342c-5.858-5.858-15.355-5.858-21.213 0l-71.342 71.342-24.231-24.231 71.342-71.342c5.858-5.858 5.858-15.355 0-21.213l-71.342-71.342 24.231-24.231 71.342 71.342c5.858 5.858 15.355 5.858 21.213 0l71.342-71.342 24.231 24.231-71.342 71.342c-5.858 5.858-5.858 15.355 0 21.213l71.342 71.342zm17.162 25.264 32.334-32.335 36.343 12.112-56.564 56.564zm51.001 88.343-24.231-24.231 69.676-69.676 24.231 24.232z"/></svg>