<svg id="Layer_1" enable-background="new 0 0 511.715 511.715" height="512" viewBox="0 0 511.715 511.715" width="512" xmlns="http://www.w3.org/2000/svg"><g><path d="m401.556 195.495 13.352-13.352.753.753c5.857 5.858 15.355 5.858 21.213 0s5.858-15.355 0-21.213l-22.718-22.718c-5.857-5.858-15.355-5.858-21.213 0s-5.858 15.355 0 21.213l.753.753-13.352 13.352c-29.957-25.633-67.879-42.204-109.487-45.441v-20.883c23.15-6.552 40.167-27.858 40.167-53.077-3.031-73.187-107.314-73.164-110.333 0 0 25.219 17.017 46.525 40.167 53.077v20.883c-41.608 3.237-79.53 19.808-109.487 45.441l-13.352-13.352.753-.753c5.858-5.858 5.858-15.355 0-21.213-5.857-5.858-15.355-5.858-21.213 0l-22.718 22.718c-5.858 5.858-5.858 15.355 0 21.213 5.857 5.858 15.356 5.858 21.213 0l.753-.753 13.352 13.352c-105.836 121.843-17.236 316.882 145.7 316.219 162.924.666 251.54-194.407 145.697-316.219zm-170.866-140.614c0-13.877 11.29-25.167 25.167-25.167 24.585.175 34.307 31.608 14.551 45.681-3.872-15.131-25.236-15.121-29.101 0-6.419-4.564-10.617-12.056-10.617-20.514zm25.166 426.834c-89.18 0-161.733-72.553-161.733-161.733 8.884-214.561 314.616-214.499 323.467.001-.001 89.179-72.554 161.732-161.734 161.732z"/><path d="m324.772 229.853-47.938 47.938c-40.346-19.913-83.076 22.846-63.168 63.168l-25.22 25.22c-5.858 5.858-5.858 15.355 0 21.213 5.857 5.858 15.355 5.858 21.213 0l25.22-25.22c40.346 19.914 83.076-22.846 63.168-63.168l47.938-47.938c5.858-5.858 5.858-15.355 0-21.213s-15.356-5.858-21.213 0zm-68.916 107.262c-9.447 0-17.133-7.686-17.133-17.133.941-22.73 33.329-22.723 34.267 0-.001 9.447-7.687 17.133-17.134 17.133z"/></g></svg>