<svg id="Layer_1" enable-background="new 0 0 512 512" height="512" viewBox="0 0 512 512" width="512" xmlns="http://www.w3.org/2000/svg"><g><path d="m403.155 186.273c5.858-5.858 5.858-15.355 0-21.213-5.857-5.858-15.355-5.858-21.213 0l-43.807 43.807h-116.107l-43.807-43.807c-5.857-5.858-15.355-5.858-21.213 0s-5.858 15.355 0 21.213l43.807 43.807v116.107l-43.807 43.807c-5.858 5.858-5.858 15.355 0 21.213 5.857 5.858 15.355 5.858 21.213 0l43.806-43.806h116.108l43.806 43.806c5.857 5.858 15.355 5.858 21.213 0s5.858-15.355 0-21.213l-43.807-43.807v-116.107zm-73.806 151.127h-98.533v-98.533h98.533z"/><path d="m456.816 0h-192.8c-3.978 0-7.793 1.581-10.606 4.394l-59.873 59.873h-19.708l-43.807-43.807c-5.857-5.858-15.355-5.858-21.213 0l-64.267 64.267c-5.81 5.586-5.81 15.628 0 21.213l43.807 43.806v347.254c0 8.284 6.716 15 15 15h353.467c8.284 0 15-6.716 15-15v-482c0-8.284-6.716-15-15-15zm-186.587 30h102.174l-34.267 34.267h-102.174zm-193.867 65.333 43.053-43.053 26.987 26.986-43.053 43.053zm365.454 386.667h-323.467v-332.253l55.48-55.48h170.52c3.978 0 7.793-1.581 10.606-4.394l59.874-59.873h26.987z"/></g></svg>