<svg id="Layer_1" enable-background="new 0 0 512 512" height="512" viewBox="0 0 512 512" width="512" xmlns="http://www.w3.org/2000/svg"><path d="m499.941 361.752-4.008-.802v-113.023c0-25.989-21.145-47.133-47.134-47.133h-16.066c-10.867 0-35.841 5.633-44.697 32.133h-36.749c.198-2.775-.368-5.601-1.729-8.145-2.61-4.877-7.693-7.922-13.226-7.922h-17.132v-27.808l131.256-14.584c7.597-.844 13.344-7.265 13.344-14.908v-88.366c-.793-19.902-29.215-19.887-30 0v1.066h-355.6v-1.066c-.793-19.902-29.215-19.887-30 0v88.367c0 7.643 5.747 14.064 13.344 14.908l131.256 14.584v27.808h-17.133c-5.532 0-10.615 3.045-13.225 7.922-1.361 2.543-1.927 5.369-1.729 8.145h-36.748c-8.834-26.438-33.618-32.133-44.697-32.133h-16.068c-25.989 0-47.133 21.144-47.133 47.133v113.022l-4.009.802c-7.011 1.402-12.058 7.558-12.058 14.708v64.267c0 8.284 6.716 15 15 15h482c8.284 0 15-6.716 15-15v-64.267c0-7.15-5.047-13.306-12.059-14.708zm-84.341-113.825c0-9.578 7.762-17.133 17.134-17.133h16.066c9.447 0 17.134 7.686 17.134 17.133v107.023l-50.334-10.066zm-337.4-101.792v-43.875h355.6v43.875l-124.52 13.835c-29.673-25.528-76.888-25.526-106.561 0zm142.081 125.605-16.586-24.88h104.611l-16.586 24.88c-2.986 4.479-3.343 10.214-.936 15.028l24.842 49.686-59.626 23.851-59.626-23.851 24.843-49.686c2.407-4.814 2.05-10.549-.936-15.028zm2.519-54.88v-34.559c18.697-15.395 47.704-15.394 66.4 0v34.56h-66.4zm-176.733 31.067c0-9.447 7.686-17.133 17.133-17.133h16.066c9.367 0 17.133 7.552 17.133 17.133v96.957l-50.332 10.066zm114.6 177.8h-130.667v-36.97l130.667-26.133zm4.864-94.67-39.131 7.826v-75.956h51.929l12.159 18.216zm155.802 94.67h-130.666v-59.245l59.763 23.905c3.576 1.431 7.566 1.431 11.142 0l59.762-23.905v59.245zm.179-144.583 12.16-18.216h51.928v75.956l-39.131-7.826zm160.488 144.583h-130.667v-63.103l130.667 26.133z"/></svg>