<svg id="Layer_1" enable-background="new 0 0 512 512" height="512" viewBox="0 0 512 512" width="512" xmlns="http://www.w3.org/2000/svg"><g><path d="m497 32.133h-482c-8.284 0-15 6.716-15 15v417.733c0 8.284 6.716 15 15 15h482c8.284 0 15-6.716 15-15v-417.733c0-8.284-6.716-15-15-15zm-15 417.734h-452v-387.734h452z"/><path d="m143.533 415.6h49.267v1.066c.793 19.902 29.215 19.887 30 0v-1.066h145.667c43.708 0 79.267-35.559 79.267-79.267v-64.267c0-43.708-35.559-79.267-79.267-79.267h-17.134v-17.133c0-43.708-35.559-79.267-79.267-79.267h-128.533c-43.78 0-79.267 35.415-79.267 79.267v160.667c.001 43.78 35.416 79.267 79.267 79.267zm64.267-110.333c-8.284 0-15 6.716-15 15v1.067h-34.267v-130.667h98.533v17.133c0 43.708 35.559 79.267 79.267 79.267h17.134v34.267h-130.667v-1.067c0-8.285-6.716-15-15-15zm-113.533-129.6c0-27.216 22.015-49.267 49.267-49.267h128.533c27.166 0 49.267 22.101 49.267 49.267v32.133c0 8.284 6.716 15 15 15h32.134c27.166 0 49.267 22.101 49.267 49.267v64.267c0 27.166-22.101 49.267-49.267 49.267h-145.668v-34.267h145.667c8.284 0 15-6.716 15-15v-64.267c0-8.284-6.716-15-15-15h-32.134c-27.166 0-49.267-22.101-49.267-49.267v-32.133c0-8.284-6.716-15-15-15h-128.533c-8.284 0-15 6.716-15 15v160.667c0 8.284 6.716 15 15 15h49.267v34.266h-49.267c-27.217 0-49.267-22.016-49.267-49.267v-160.666z"/></g></svg>