<svg id="Layer_1" enable-background="new 0 0 512 512" height="512" viewBox="0 0 512 512" width="512" xmlns="http://www.w3.org/2000/svg"><g><path d="m497 0h-482c-8.284 0-15 6.716-15 15v482c.793 19.902 29.215 19.887 30 0v-306.333h126.455l-75.674 302.695c-1.12 4.48-.113 9.229 2.729 12.869 2.843 3.641 7.204 5.769 11.823 5.769h321.333c4.619 0 8.98-2.128 11.823-5.769 2.842-3.641 3.849-8.389 2.729-12.869l-75.674-302.695h126.456v306.333c.793 19.902 29.215 19.887 30 0v-482c0-8.284-6.716-15-15-15zm-226 30h50.333v50.333h-50.333zm0 80.333h50.333v50.334h-50.333zm-80.333-80.333h50.333v50.333h-50.333zm0 80.333h50.333v50.334h-50.333zm-80.334-80.333h50.333v50.333h-50.333zm-30 130.667h-50.333v-50.334h50.333zm0-80.334h-50.333v-50.333h50.333zm30 80.334v-50.334h50.333v50.334zm287.122 321.333h-126.455v-33.2c-.793-19.902-29.215-19.887-30 0v33.2h-126.455l72.833-291.333h137.244zm4.212-321.333h-50.333v-50.334h50.333zm0-80.334h-50.333v-50.333h50.333zm80.333 80.334h-50.333v-50.334h50.333zm0-80.334h-50.333v-50.333h50.333z"/><path d="m256 224.934c-8.284 0-15 6.716-15 15v16.066c.793 19.902 29.215 19.887 30 0v-16.066c0-8.285-6.716-15-15-15z"/><path d="m256 321.333c-8.284 0-15 6.716-15 15v32.134c.793 19.902 29.215 19.887 30 0v-32.134c0-8.284-6.716-15-15-15z"/></g></svg>