<svg id="Layer_1" enable-background="new 0 0 512 512" height="512" viewBox="0 0 512 512" width="512" xmlns="http://www.w3.org/2000/svg"><g><path d="m497.057 0h-321.35c-56.668 0-103.133 42.152-110.382 96.4h-18.134c-7.333 0-13.59 5.301-14.796 12.534l-32.133 192.8c-1.691 8.84 5.799 17.68 14.796 17.466h128.533c8.997.214 16.487-8.626 14.796-17.466l-32.133-192.8c-1.206-7.233-7.463-12.534-14.796-12.534h-15.747c9.792-52.903 58.038-66.4 79.997-66.4h97.483v76.878c-37.93 17.786-64.267 56.333-64.267 100.921v289.201c0 8.284 6.716 15 15 15h192.8c8.284 0 15-6.716 15-15v-289.2c0-44.589-26.336-83.136-64.267-100.921v-67.609l106.825 53.413c7.409 3.706 16.42.701 20.125-6.708s.701-16.42-6.708-20.124l-71.701-35.851h81.059c19.902-.793 19.887-29.215 0-30zm-398.307 126.4 27.133 162.8h-93.119l27.133-162.8zm204.441-96.4h34.267v66.4h-34.267zm98.533 452h-162.8v-34.267h162.8zm0-64.267h-162.8v-194.933h162.8zm-1.385-224.933h-160.03c18.196-88.087 141.869-88.025 160.03 0z"/><path d="m320.324 383.467c25.989 0 47.133-21.145 47.133-47.134 0-15.806-10.625-26.6-19.163-35.273-10.91-11.083-15.164-16.542-13.262-26.052 1.296-6.481-1.803-13.048-7.631-16.167-5.829-3.118-13.011-2.055-17.685 2.619-16.85 16.851-36.526 46.571-36.526 74.873.001 25.989 21.145 47.134 47.134 47.134zm-7.211-77.507c4.298 6.49 9.498 11.773 13.801 16.145 5.183 5.266 10.543 10.711 10.543 14.229-.941 22.73-33.329 22.724-34.267 0 .001-9.492 4.085-20.313 9.923-30.374z"/></g></svg>