<svg id="Layer_1" enable-background="new 0 0 512 512" height="512" viewBox="0 0 512 512" width="512" xmlns="http://www.w3.org/2000/svg"><path d="m384.533 158.533h32.134c17.13 0 31.066-13.937 31.066-31.066v-96.4c0-17.13-13.936-31.067-31.066-31.067h-32.134c-17.13 0-31.066 13.937-31.066 31.066v33.2h-34.267v-17.132c0-8.284-6.716-15-15-15h-96.4c-8.284 0-15 6.716-15 15v17.133h-34.267v-33.2c0-17.13-13.936-31.067-31.066-31.067h-32.134c-17.13 0-31.066 13.937-31.066 31.066v96.4c0 17.13 13.937 31.066 31.066 31.066h32.134c17.13 0 31.066-13.937 31.066-31.066v-33.2h34.267v17.134c0 8.284 6.716 15 15 15h33.2v194.933h-17.134c-8.284 0-15 6.716-15 15v49.267h-1.066c-8.284 0-15 6.716-15 15v17.134h-34.267v-33.2c0-17.13-13.937-31.066-31.066-31.066h-32.134c-17.13 0-31.066 13.937-31.066 31.066v96.4c0 17.13 13.937 31.066 31.066 31.066h32.134c17.13 0 31.066-13.937 31.066-31.066v-33.2h34.267v17.133c0 8.284 6.716 15 15 15h96.4c8.284 0 15-6.716 15-15v-17.133h34.267v33.2c0 17.13 13.937 31.066 31.066 31.066h32.134c17.13 0 31.066-13.937 31.066-31.066v-96.4c0-17.13-13.937-31.066-31.066-31.066h-32.134c-17.13 0-31.066 13.937-31.066 31.066v33.2h-34.267v-17.134c0-8.284-6.716-15-15-15h-1.066v-49.267c0-8.284-6.716-15-15-15h-17.134v-194.933h33.2c8.284 0 15-6.716 15-15v-17.133h34.267v33.2c0 17.13 13.936 31.066 31.066 31.066zm-1.066-127.467c0-.588.479-1.066 1.066-1.066h32.134c.588 0 1.066.479 1.066 1.066v96.4c0 .588-.479 1.066-1.066 1.066h-32.134c-.588 0-1.066-.479-1.066-1.066zm-254.934 96.401c0 .588-.479 1.066-1.066 1.066h-32.134c-.588 0-1.066-.479-1.066-1.066v-96.4c0-.588.479-1.066 1.066-1.066h32.134c.588 0 1.066.479 1.066 1.066zm0 353.467c0 .588-.479 1.066-1.066 1.066h-32.134c-.588 0-1.066-.479-1.066-1.066v-96.4c0-.588.479-1.066 1.066-1.066h32.134c.588 0 1.066.479 1.066 1.066zm254.934-96.401c0-.588.479-1.066 1.066-1.066h32.134c.588 0 1.066.479 1.066 1.066v96.4c0 .588-.479 1.066-1.066 1.066h-32.134c-.588 0-1.066-.479-1.066-1.066zm-110.333-33.2v49.267c0 8.284 6.716 15 15 15h1.066v34.267h-66.4v-34.267h1.066c8.284 0 15-6.716 15-15v-49.267zm16.066-254.933h-66.4v-34.266h66.4z"/></svg>