<svg id="Layer_1" enable-background="new 0 0 512 512" height="512" viewBox="0 0 512 512" width="512" xmlns="http://www.w3.org/2000/svg"><g><path d="m497 273.134h-24.221c-2.918-9.453-6.714-18.6-11.354-27.366l17.141-17.142c5.858-5.857 5.858-15.355 0-21.213l-45.444-45.444c-5.858-5.859-15.36-5.852-21.213 0l-17.141 17.142c-8.763-4.64-17.91-8.436-27.368-11.356v-24.221c0-8.284-6.716-15-15-15h-41.143c-1.828-5.255-3.954-10.404-6.385-15.413l17.735-17.732c5.859-5.857 5.854-15.361 0-21.214l-45.444-45.444c-5.858-5.858-15.354-5.857-21.212-.001l-17.737 17.735c-5.012-2.432-10.157-4.567-15.413-6.396v-25.069c0-8.284-6.716-15-15-15h-64.267c-8.284 0-15 6.716-15 15v25.067c-5.256 1.829-10.401 3.964-15.413 6.396l-17.738-17.734c-5.857-5.857-15.355-5.856-21.212.001l-45.444 45.444c-5.859 5.856-5.853 15.361 0 21.214l17.737 17.734c-2.433 5.015-4.569 10.16-6.396 15.411h-25.068c-8.284 0-15 6.716-15 15v64.267c0 8.284 6.716 15 15 15h25.066c1.828 5.257 3.963 10.402 6.396 15.414l-17.735 17.732c-5.858 5.858-5.854 15.362 0 21.214l45.444 45.443c5.858 5.859 15.355 5.856 21.212.001l17.737-17.735c5.01 2.431 10.158 4.557 15.413 6.386v41.145c0 8.284 6.716 15 15 15h24.221c2.919 9.453 6.714 18.6 11.354 27.365l-17.141 17.142c-5.858 5.857-5.858 15.355 0 21.213l45.444 45.444c5.857 5.858 15.361 5.853 21.213 0l17.14-17.142c8.763 4.64 17.911 8.436 27.368 11.356v24.222c0 8.284 6.716 15 15 15h64.268c8.284 0 15-6.716 15-15v-24.221c9.456-2.919 18.605-6.716 27.368-11.355l17.14 17.141c5.857 5.858 15.361 5.853 21.213 0l45.444-45.444c5.858-5.857 5.858-15.355 0-21.213l-17.142-17.142c4.641-8.766 8.437-17.914 11.355-27.365h24.222c8.284 0 15-6.716 15-15v-64.267c0-8.284-6.716-15-15-15zm-366.089 6.891c-4.423-1.901-8.728-4.088-12.889-6.548-5.892-3.483-13.397-2.535-18.24 2.305l-15.004 15.003-24.231-24.231 15.002-15c4.843-4.842 5.791-12.35 2.305-18.243-5.41-9.147-9.494-18.989-12.138-29.253-1.708-6.627-7.683-11.258-14.526-11.258h-21.19v-34.267h21.19c6.843 0 12.819-4.632 14.526-11.258 2.638-10.242 6.723-20.087 12.142-29.26 3.481-5.894 2.531-13.396-2.309-18.236l-15.002-15 24.231-24.23 15.004 15.003c4.842 4.841 12.347 5.789 18.241 2.304 9.151-5.411 18.994-9.495 29.254-12.14 6.626-1.708 11.256-7.683 11.256-14.525v-21.191h34.267v21.19c0 6.842 4.63 12.817 11.255 14.525 10.261 2.645 20.104 6.729 29.256 12.141 5.893 3.485 13.398 2.536 18.24-2.305l15.004-15.003 24.231 24.23-15.002 15c-4.843 4.842-5.791 12.35-2.305 18.244 2.46 4.16 4.646 8.464 6.548 12.887-4.147 2.668-6.895 7.325-6.895 12.623v24.221c-6.217 1.92-12.297 4.226-18.226 6.894-.55-43.238-35.875-78.247-79.241-78.247-104.553 4.268-105.41 152.958-1.019 158.507-2.669 5.931-4.975 12.011-6.894 18.226h-24.221c-5.295.001-9.951 2.747-12.62 6.892zm27.113-58.356c-18.477-7.111-31.625-25.051-31.625-46.002.972-54.82 75.236-67.878 95.268-17.644-4.942-1.236-10.392.081-14.256 3.945l-45.444 45.444c-.132.134-6.095 5.675-3.943 14.257zm323.976 115.731h-20.725c-7.004 0-13.076 4.848-14.627 11.678-3.231 14.229-8.837 27.74-16.661 40.158-3.734 5.927-2.869 13.649 2.084 18.603l14.674 14.675-24.231 24.23-14.674-14.675c-4.954-4.955-12.678-5.819-18.606-2.083-12.407 7.821-25.918 13.428-40.158 16.663-6.83 1.552-11.677 7.623-11.677 14.627v20.724h-34.267v-20.724c0-7.003-4.846-13.074-11.675-14.627-14.245-3.238-27.757-8.845-40.16-16.663-5.927-3.736-13.652-2.872-18.606 2.083l-14.674 14.675-24.231-24.23 14.674-14.675c4.954-4.953 5.819-12.676 2.084-18.603-7.823-12.416-13.429-25.928-16.661-40.158-1.551-6.83-7.623-11.678-14.627-11.678h-20.725v-34.267h20.725c7.004 0 13.077-4.848 14.627-11.679 3.231-14.228 8.836-27.739 16.661-40.159 3.734-5.927 2.869-13.648-2.085-18.602l-14.674-14.675 24.23-24.23 14.675 14.676c4.954 4.954 12.679 5.818 18.606 2.083 12.409-7.822 25.92-13.429 40.158-16.664 6.83-1.552 11.677-7.623 11.677-14.627v-20.724h34.269v20.724c0 7.003 4.846 13.074 11.675 14.627 14.245 3.238 27.756 8.845 40.16 16.664 5.927 3.736 13.651 2.872 18.606-2.083l14.675-14.676 24.23 24.23-14.674 14.675c-4.954 4.953-5.819 12.676-2.084 18.603 7.823 12.416 13.429 25.928 16.661 40.159 1.551 6.83 7.623 11.678 14.627 11.678h20.724z"/><path d="m320.267 224.934c-52.567 0-95.333 42.767-95.333 95.333 5.237 126.472 185.449 126.435 190.667-.001-.001-52.566-42.768-95.332-95.334-95.332zm0 160.666c-36.025 0-65.333-29.309-65.333-65.333 3.589-86.673 127.091-86.648 130.667 0-.001 36.024-29.309 65.333-65.334 65.333z"/></g></svg>