<svg id="Layer_1" enable-background="new 0 0 512 512" height="512" viewBox="0 0 512 512" width="512" xmlns="http://www.w3.org/2000/svg"><g><path d="m256 447.609c61.427 0 111.4-49.974 111.4-111.4-6.119-147.786-216.704-147.744-222.801.001.001 61.426 49.975 111.399 111.401 111.399zm0-94.266c-9.447 0-17.133-7.687-17.133-17.134.941-22.729 33.329-22.722 34.267 0 0 9.447-7.687 17.134-17.134 17.134zm15 62.858v-35.319c13.94-4.693 24.979-15.733 29.672-29.672h35.319c-6.151 32.874-32.116 58.839-64.991 64.991zm-15-161.391c39.759 0 72.929 28.659 79.992 66.399h-35.319c-14.486-42.589-74.875-42.562-89.344 0h-35.319c7.061-37.74 40.231-66.399 79.99-66.399zm-44.672 96.399c4.694 13.94 15.732 24.979 29.672 29.672v35.319c-32.875-6.152-58.839-32.116-64.991-64.992h35.319z"/><path d="m497 64.143h-65.333v-17.133c-2.625-62.67-91.856-62.359-94.267 0v17.133h-34.267v-17.133c-2.625-62.67-91.857-62.359-94.267 0v17.133h-34.266v-17.133c-2.624-62.669-91.855-62.36-94.267 0v17.133h-65.333c-8.284 0-15 6.716-15 15v417.733c0 8.284 6.716 15 15 15h482c8.284 0 15-6.716 15-15v-417.733c0-8.284-6.716-15-15-15zm-129.6-17.133c.922-22.743 33.334-22.717 34.267 0v17.133h-34.267zm-128.533 0c.887-22.68 33.317-22.769 34.267 0v17.133h-34.267zm-128.534 0c.887-22.679 33.317-22.77 34.267 0v17.133h-34.267zm371.667 434.866h-452v-291.333h452zm0-321.333h-452v-66.4h50.333v17.134c.793 19.902 29.215 19.887 30 0v-17.134h98.533v17.134c.793 19.902 29.215 19.887 30 0v-17.134h98.534v17.134c.793 19.902 29.215 19.887 30 0v-17.134h114.6z"/></g></svg>