<svg id="Layer_1" enable-background="new 0 0 512 512" height="512" viewBox="0 0 512 512" width="512" xmlns="http://www.w3.org/2000/svg"><g><path d="m497 0h-482c-8.284 0-15 6.716-15 15v482c0 8.284 6.716 15 15 15h208.866c8.284 0 15-6.716 15-15v-193.866h34.268v193.866c0 8.284 6.716 15 15 15h208.866c8.284 0 15-6.716 15-15v-482c0-8.284-6.716-15-15-15zm-288.134 482h-178.866v-452h178.866zm64.268-208.866h-34.268v-34.268h34.268zm0-64.268h-34.268v-82.466h34.268zm0-112.466h-34.268v-66.4h34.268zm208.866 385.6h-178.866v-452h178.866z"/><path d="m119.434 443.146c27.256 0 49.431-22.175 49.431-49.431-2.715-65.578-96.157-65.558-98.862 0-.001 27.257 22.174 49.431 49.431 49.431zm0-68.862c10.714 0 19.431 8.717 19.431 19.432-1.068 25.778-37.799 25.769-38.862 0-.001-10.715 8.716-19.432 19.431-19.432z"/><path d="m119.434 305.431c27.256 0 49.431-22.175 49.431-49.431-2.716-65.577-96.157-65.557-98.862 0-.001 27.256 22.174 49.431 49.431 49.431zm0-68.862c10.714 0 19.431 8.717 19.431 19.431-1.068 25.778-37.799 25.769-38.862 0-.001-10.714 8.716-19.431 19.431-19.431z"/><path d="m119.434 167.716c27.256 0 49.431-22.175 49.431-49.432-2.716-65.577-96.157-65.557-98.862 0-.001 27.257 22.174 49.432 49.431 49.432zm0-68.862c10.714 0 19.431 8.717 19.431 19.431-1.067 25.779-37.799 25.771-38.862 0-.001-10.715 8.716-19.431 19.431-19.431z"/><path d="m392.566 443.146c27.257 0 49.432-22.175 49.432-49.431-2.715-65.577-96.157-65.559-98.862 0 0 27.257 22.175 49.431 49.43 49.431zm0-68.862c10.715 0 19.432 8.717 19.432 19.432-1.067 25.777-37.799 25.77-38.862 0 0-10.715 8.717-19.432 19.43-19.432z"/><path d="m392.566 305.431c27.257 0 49.432-22.175 49.432-49.431-2.715-65.576-96.157-65.558-98.862 0 0 27.256 22.175 49.431 49.43 49.431zm0-68.862c10.715 0 19.432 8.717 19.432 19.431-1.067 25.777-37.799 25.77-38.862 0 0-10.714 8.717-19.431 19.43-19.431z"/><path d="m392.566 167.716c27.257 0 49.432-22.175 49.432-49.432-2.715-65.576-96.157-65.558-98.862 0 0 27.257 22.175 49.432 49.43 49.432zm0-68.862c10.715 0 19.432 8.717 19.432 19.431-1.067 25.778-37.799 25.772-38.862 0 0-10.715 8.717-19.431 19.43-19.431z"/></g></svg>