<svg id="Layer_1" enable-background="new 0 0 512 512" height="512" viewBox="0 0 512 512" width="512" xmlns="http://www.w3.org/2000/svg"><path d="m497 32.134h-482c-8.284 0-15 6.716-15 15v417.732c0 8.284 6.716 15 15 15h482c8.284 0 15-6.716 15-15v-417.732c0-8.284-6.716-15-15-15zm-400.6 417.732h-66.4v-291.333h66.4zm289.2 0h-259.2v-34.266h259.2zm0-64.266h-259.2v-34.267h259.2zm0-64.267h-259.2v-34.267h259.2zm0-64.267h-259.2v-34.266h259.2zm0-64.266h-259.2v-34.267h259.2zm96.4 257.066h-66.4v-291.333h66.4zm0-321.333h-452v-66.399h452z"/></svg>