<svg id="Layer_1" enable-background="new 0 0 512 512" height="512" viewBox="0 0 512 512" width="512" xmlns="http://www.w3.org/2000/svg"><g><path d="m497 0h-160.667c-8.284 0-15 6.716-15 15v80.333c0 36.025-29.309 65.334-65.333 65.334-148.025 0-256 121.345-256 256v80.333c0 8.284 6.716 15 15 15h160.667c8.284 0 15-6.716 15-15v-80.333c0-36.025 29.309-65.334 65.333-65.334 148.025 0 256-121.345 256-256v-80.333c0-8.284-6.716-15-15-15zm-15 95.333c0 121.623-98.041 226-226 226-52.567 0-95.333 42.767-95.333 95.334v65.333h-130.667v-65.333c0-121.623 98.041-226 226-226 52.567 0 95.333-42.767 95.333-95.334v-65.333h130.667z"/><path d="m416.667 126.4c8.284 0 15-6.716 15-15v-32.133c-.793-19.902-29.215-19.887-30 0v32.133c0 8.285 6.715 15 15 15z"/><path d="m95.333 385.6c-8.284 0-15 6.716-15 15v32.134c.793 19.902 29.215 19.887 30 0v-32.134c0-8.285-6.715-15-15-15z"/><path d="m272.067 241h-32.134c-19.902.793-19.887 29.215 0 30h32.134c19.902-.793 19.887-29.215 0-30z"/><path d="m347.642 230.906c5.859 5.859 15.356 5.857 21.213 0l22.718-22.718c5.858-5.857 5.858-15.355 0-21.213-5.859-5.858-15.355-5.858-21.213 0l-22.718 22.718c-5.858 5.858-5.858 15.356 0 21.213z"/><path d="m143.145 281.094-22.718 22.718c-13.513 14.634 6.596 34.72 21.213 21.213l22.718-22.718c5.858-5.857 5.858-15.355 0-21.213-5.858-5.86-15.355-5.858-21.213 0z"/></g></svg>