<svg id="Layer_1" enable-background="new 0 0 511.812 511.812" height="512" viewBox="0 0 511.812 511.812" width="512" xmlns="http://www.w3.org/2000/svg"><path d="m366.083 418.769c-5.683-32.274-30.94-57.871-63.043-64.047v-145.392l28.239-112.964c5.843-23.372.691-47.671-14.135-66.666-29.732-39.603-92.78-39.597-122.508 0-14.826 18.995-19.978 43.294-14.135 66.665l28.271 113.094v145.263c-32.103 6.176-57.361 31.773-63.043 64.047-37.16 6.543-65.49 39.036-65.49 78.043 0 8.284 6.716 15 15 15h321.333c8.284 0 15-6.716 15-15 .001-39.007-28.329-71.5-65.489-78.043zm-147.797-370.612c18.25-24.308 56.962-24.304 75.209 0 9.104 11.665 12.267 26.584 8.68 40.933l-25.879 103.522h-40.811l-25.879-103.523c-3.588-14.348-.424-29.267 8.68-40.932zm54.753 174.455v130.667h-34.267v-130.667zm-49.266 160.667h64.267c21.938 0 40.572 14.412 46.932 34.267h-158.131c6.36-19.855 24.994-34.267 46.932-34.267zm-111.199 98.533c6.36-19.854 24.995-34.267 46.933-34.267h192.8c21.938 0 40.573 14.412 46.933 34.267z"/></svg>