<svg id="Layer_1" enable-background="new 0 0 511.921 511.921" height="512" viewBox="0 0 511.921 511.921" width="512" xmlns="http://www.w3.org/2000/svg"><g><path d="m320.187 353.465h-25.92c-7.57-7.571-23.58-23.584-37.136-37.152-34.701-35.916-91.306-32.098-133.085-11.156-23.604 11.818-56.587 28.309-78.059 39.042v-23.934c0-8.284-6.716-15-15-15h-16.066c-19.902.793-19.887 29.215 0 30h1.067v129.6c0 8.284 6.716 15 15 15h51.728c14.486 42.59 74.875 42.564 89.344 0h103.456c14.486 42.59 74.875 42.564 89.344 0h51.728c8.284 0 15-6.716 15-15-.001-61.426-49.974-111.4-111.401-111.4zm-182.731-21.472c30.508-14.866 72.574-21.034 98.454 5.525 5.156 5.16 10.668 10.677 15.937 15.947h-157.309c14.855-7.428 30.243-15.126 42.918-21.472zm-10.068 150.005c-9.447 0-17.133-7.687-17.133-17.134.941-22.729 33.329-22.722 34.267 0-.001 9.448-7.687 17.134-17.134 17.134zm192.799 0c-9.447 0-17.133-7.687-17.133-17.134.941-22.729 33.329-22.722 34.267 0 0 9.448-7.686 17.134-17.134 17.134zm44.687-32.133c-14.479-42.589-74.911-42.562-89.374 0h-103.425c-14.48-42.591-74.917-42.56-89.377 0h-36.71v-66.399h274.2c39.761 0 72.955 28.655 80.015 66.399z"/><path d="m400.521 64.265h-25.92c-7.57-7.571-23.58-23.584-37.136-37.152-34.701-35.916-91.306-32.098-133.085-11.157-23.604 11.818-56.587 28.309-78.059 39.042v-23.933c0-8.284-6.716-15-15-15h-16.067c-19.902.793-19.887 29.215 0 30h1.067v129.6c0 8.284 6.716 15 15 15h51.728c14.486 42.59 74.875 42.564 89.344 0h103.456c14.486 42.59 74.875 42.564 89.344 0h51.728c8.284 0 15-6.716 15-15 0-61.426-49.974-111.4-111.4-111.4zm-182.731-21.473c30.508-14.866 72.574-21.034 98.454 5.525 5.156 5.16 10.668 10.677 15.937 15.947h-157.309c14.854-7.428 30.242-15.125 42.918-21.472zm-10.069 150.006c-9.447 0-17.133-7.687-17.133-17.134.941-22.729 33.329-22.722 34.267 0-.001 9.448-7.687 17.134-17.134 17.134zm192.8 0c-9.447 0-17.133-7.687-17.133-17.134.941-22.729 33.329-22.722 34.267 0-.001 9.448-7.687 17.134-17.134 17.134zm44.686-32.134c-14.479-42.589-74.911-42.562-89.374 0h-103.425c-14.48-42.591-74.917-42.56-89.377 0h-36.709v-66.399h274.2c39.761 0 72.955 28.655 80.015 66.399z"/></g></svg>