<svg id="Layer_1" enable-background="new 0 0 512 512" height="512" viewBox="0 0 512 512" width="512" xmlns="http://www.w3.org/2000/svg"><g><path d="m408.456 146.218-58.784-58.733c-14.97-14.973-34.857-23.218-55.996-23.218h-86.942v-49.267c0-8.284-6.716-15-15-15h-96.4c-8.284 0-15 6.716-15 15v417.733c-.001 44.787 36.484 79.267 79.266 79.267h192.8c42.782 0 79.267-34.481 79.267-79.267v-230.446c0-21.187-8.236-41.093-23.211-56.069zm-298.123-116.218h66.4v34.267h-66.4zm291.334 402.733c0 27.559-22.341 49.267-49.267 49.267h-192.8c-26.996 0-49.267-21.776-49.267-49.267v-338.466h183.342c13.125 0 25.478 5.124 34.802 14.449l58.784 58.733c9.289 9.291 14.405 21.663 14.405 34.838v230.446z"/><path d="m304.285 132.93c-2.813-2.815-6.63-4.396-10.609-4.396h-134.076c-8.284 0-15 6.716-15 15v289.2c0 8.284 6.716 15 15 15h192.8c8.284 0 15-6.716 15-15v-230.447c0-3.977-1.579-7.791-4.391-10.604zm33.115 284.803h-162.8v-259.2h112.86l49.939 49.965v209.235z"/><path d="m256 208.866c-5.682 0-10.875 3.21-13.417 8.292-14.128 28.256-33.717 75.875-33.717 103.108 0 25.989 21.144 47.134 47.133 47.134s47.133-21.145 47.133-47.134c0-27.233-19.589-74.853-33.717-103.108-2.54-5.082-7.733-8.292-13.415-8.292zm0 128.534c-9.447 0-17.133-7.687-17.133-17.134 0-14.618 8.606-39.319 17.133-59.953 8.527 20.634 17.133 45.335 17.133 59.953 0 9.448-7.686 17.134-17.133 17.134z"/></g></svg>