<svg id="Layer_1" enable-background="new 0 0 512 512" height="512" viewBox="0 0 512 512" width="512" xmlns="http://www.w3.org/2000/svg"><g><path d="m510.852 9.26c-2.322-5.606-7.791-9.26-13.858-9.26h-132.237c-3.979 0-7.793 1.58-10.606 4.394l-98.159 98.154-98.154-98.154c-2.813-2.814-6.628-4.394-10.606-4.394h-132.237c-13.262-.044-20.013 16.265-10.607 25.607l160.55 160.551c-149.876 91.953-87.217 324.077 91.058 325.842 178.289-1.772 240.919-233.922 91.054-325.843l160.55-160.55c4.29-4.291 5.573-10.742 3.252-16.347zm-459.644 20.74h89.811l93.76 93.76-44.907 44.905zm350.453 306.333c0 80.321-65.346 145.667-145.667 145.667-193.246-8.001-193.191-283.361.001-291.333 80.32 0 145.666 65.346 145.666 145.666zm-83.08-164.133c-24.159-9.365-52.323-13.379-79.062-10.755l131.451-131.445h89.811z"/><path d="m227.927 247-48.2 64.267c-3.409 4.545-3.958 10.627-1.417 15.708 2.541 5.082 7.735 8.292 13.417 8.292h17.133v81.4c0 8.284 6.716 15 15 15h64.267c8.284 0 15-6.716 15-15v-160.667c0-8.284-6.716-15-15-15h-48.201c-4.72 0-9.166 2.223-11.999 6zm45.201 24v130.667h-34.267v-81.4c0-8.284-6.716-15-15-15h-2.133l25.7-34.267z"/></g></svg>