<svg id="Layer_1" enable-background="new 0 0 512 512" height="512" viewBox="0 0 512 512" width="512" xmlns="http://www.w3.org/2000/svg"><path d="m474.199 238.973c16.947-24.394 4.315-59.513-23.561-68.076-3.86-22.413-17.659-41.455-36.689-52.424 20.128-29.391-1.572-70.484-37.45-70.272-35.875-.213-57.579 40.888-37.449 70.272-8.9 5.13-16.669 12.01-22.801 20.193-6.132-8.183-13.901-15.063-22.801-20.193 20.128-29.391-1.572-70.484-37.45-70.272-35.875-.213-57.579 40.888-37.449 70.272-8.9 5.13-16.669 12.01-22.801 20.193-6.132-8.183-13.901-15.063-22.801-20.193 20.127-29.391-1.572-70.484-37.45-70.272-35.875-.213-57.579 40.888-37.449 70.272-19.03 10.969-32.829 30.011-36.689 52.424-27.886 8.568-40.503 43.689-23.561 68.076-22.563 13.007-37.798 37.363-37.798 65.227v144.6c0 8.284 6.716 15 15 15h482c8.284 0 15-6.716 15-15v-144.6c0-27.864-15.235-52.22-37.801-65.227zm5.246 50.227h-85.391c14.219-40.092 71.188-40.068 85.391 0zm-361.686-90.5h35.481c-4.872 12.95-2.709 29.201 5.06 40.272-8.9 5.13-16.669 12.01-22.801 20.193-6.132-8.183-13.901-15.063-22.801-20.193 7.77-11.069 9.934-27.323 5.061-40.272zm77.991 60.25c19.695 0 36.493 12.649 42.695 30.25h-85.391c6.203-17.6 23.001-30.25 42.696-30.25zm37.449-19.977c7.769-11.07 9.932-27.324 5.06-40.272h35.481c-4.872 12.95-2.709 29.201 5.06 40.272-8.9 5.13-16.669 12.01-22.801 20.193-6.131-8.183-13.9-15.063-22.8-20.193zm83.051 19.977c19.695 0 36.493 12.649 42.695 30.25h-85.391c6.203-17.6 23.001-30.25 42.696-30.25zm37.449-19.977c7.769-11.07 9.932-27.324 5.06-40.272h35.481c-4.872 12.95-2.709 29.201 5.06 40.272-8.9 5.13-16.669 12.01-22.801 20.193-6.131-8.183-13.9-15.063-22.8-20.193zm83.051-40.273c8.34 0 15.125 6.785 15.125 15.125-.831 20.065-29.422 20.06-30.25 0 0-8.339 6.785-15.125 15.125-15.125zm-60.25-120.5c8.34 0 15.125 6.785 15.125 15.125-.831 20.065-29.422 20.06-30.25 0 0-8.339 6.785-15.125 15.125-15.125zm0 60.25c19.695 0 36.493 12.649 42.695 30.25h-85.391c6.203-17.6 23.001-30.25 42.696-30.25zm-60.25 60.25c8.34 0 15.125 6.785 15.125 15.125-.831 20.065-29.422 20.06-30.25 0 0-8.339 6.785-15.125 15.125-15.125zm-60.25-120.5c8.34 0 15.125 6.785 15.125 15.125-.831 20.065-29.422 20.06-30.25 0 0-8.339 6.785-15.125 15.125-15.125zm0 60.25c19.695 0 36.493 12.649 42.695 30.25h-85.391c6.203-17.6 23.001-30.25 42.696-30.25zm-60.25 60.25c8.34 0 15.125 6.785 15.125 15.125-.831 20.065-29.422 20.06-30.25 0 0-8.339 6.785-15.125 15.125-15.125zm-60.25-120.5c8.34 0 15.125 6.785 15.125 15.125-.831 20.065-29.422 20.06-30.25 0 0-8.339 6.785-15.125 15.125-15.125zm0 60.25c19.695 0 36.493 12.649 42.695 30.25h-85.39c6.202-17.6 23-30.25 42.695-30.25zm-60.25 60.25c8.34 0 15.125 6.785 15.125 15.125-.831 20.065-29.422 20.06-30.25 0 0-8.339 6.785-15.125 15.125-15.125zm0 60.25c19.695 0 36.493 12.649 42.695 30.25h-85.39c6.202-17.6 23-30.25 42.695-30.25zm406.75 174.85h-452v-114.6h452z"/></svg>