<svg id="Layer_1" enable-background="new 0 0 512 512" height="512" viewBox="0 0 512 512" width="512" xmlns="http://www.w3.org/2000/svg"><g><path d="m256 .662c-141.159 0-256 114.841-256 256 14.062 339.619 497.99 339.52 512-.002 0-141.157-114.841-255.998-256-255.998zm0 482c-124.617 0-226-101.383-226-226 12.414-299.82 439.632-299.733 452 .002 0 124.615-101.383 225.998-226 225.998z"/><path d="m256 64.928c-105.722 0-191.733 86.011-191.733 191.733 10.532 254.36 372.973 254.286 383.467-.001-.001-105.72-86.012-191.732-191.734-191.732zm0 30c72.79 0 134.496 48.34 154.721 114.6h-53.768c-39.646-85.219-162.287-85.181-201.906 0h-53.768c20.225-66.26 81.931-114.6 154.721-114.6zm-47.134 316.454c-51.341-15.671-91.916-56.246-107.587-107.587h53.759c11.072 23.785 30.042 42.753 53.828 53.829zm94.268 0v-53.784c23.496-11.052 42.751-30.308 53.803-53.803h53.784c-15.671 51.341-56.246 91.916-107.587 107.587zm43.771-137.587c-6.355 0-12.021 4.005-14.141 9.996-8.124 22.956-26.679 41.511-49.635 49.635-5.991 2.12-9.996 7.786-9.996 14.141v69.928c-11.371 1.197-22.896 1.197-34.268 0v-69.928c0-6.354-4.004-12.02-9.995-14.14-22.957-8.126-41.513-26.682-49.636-49.636-2.12-5.991-7.785-9.996-14.141-9.996h-69.927c-1.198-11.363-1.198-22.903 0-34.267h69.929c6.355 0 12.021-4.005 14.141-9.997 25.803-71.962 127.744-71.938 153.529.001 2.12 5.991 7.785 9.996 14.141 9.996h69.929c1.198 11.363 1.198 22.903 0 34.267z"/><path d="m256 209.528c-25.989 0-47.134 21.144-47.134 47.133 2.589 62.529 91.688 62.51 94.268 0 0-25.988-21.145-47.133-47.134-47.133zm0 64.267c-9.447 0-17.134-7.686-17.134-17.133.941-22.73 33.33-22.723 34.268 0 0 9.447-7.687 17.133-17.134 17.133z"/></g></svg>