<svg id="Layer_1" enable-background="new 0 0 512.519 512.519" height="512" viewBox="0 0 512.519 512.519" width="512" xmlns="http://www.w3.org/2000/svg"><g><path d="m256.258 56.498c-194.896-1.686-320.636 216.396-221.695 384.016 4.147 7.162 13.312 9.613 20.481 5.474l83.483-48.2c3.448-1.99 5.962-5.27 6.991-9.116 1.028-3.846.486-7.942-1.508-11.388-69.273-125.13 79.866-252.931 192.627-166.377l-59.4 59.4c-40.346-19.913-83.076 22.846-63.168 63.168l-25.22 25.22c-5.858 5.858-5.858 15.355 0 21.213 5.857 5.858 15.355 5.858 21.213 0l25.22-25.22c40.346 19.914 83.076-22.846 63.168-63.168l59.4-59.4c32.227 38.825 37.39 100.942 10.659 145.164-1.994 3.445-2.537 7.542-1.508 11.388 1.028 3.846 3.543 7.125 6.991 9.116l83.483 48.2c8.2 4.735 16.961.605 20.481-5.474 98.962-167.651-26.856-385.718-221.698-384.016zm-202.804 355.767c-13.013-26.419-20.717-55.264-22.678-84.767h66.603c1.682 17.815 6.33 35.232 13.763 51.459zm43.914-114.767h-66.6c1.992-30.246 9.957-58.882 22.73-84.742l57.668 33.292c-7.321 15.922-12.093 33.246-13.798 51.45zm28.834-77.411-57.668-33.292c16.444-24.478 37.544-45.578 62.022-62.022l33.293 57.668c-14.545 10.364-27.284 23.103-37.647 37.646zm115.056-66.479c-18.204 1.705-35.528 6.477-51.45 13.798l-33.292-57.668c25.86-12.773 54.496-20.738 84.742-22.73zm15 176.023c-9.447 0-17.133-7.686-17.133-17.133.941-22.73 33.329-22.723 34.267 0-.001 9.447-7.687 17.133-17.134 17.133zm66.45-162.225c-15.922-7.321-33.246-12.093-51.45-13.798v-66.6c30.246 1.992 58.882 9.957 84.742 22.73zm56.443 43.411 12.68-12.68c5.858-5.858 5.858-15.355 0-21.213-5.857-5.858-15.355-5.858-21.213 0l-12.68 12.68c-3.005-2.491-6.086-4.894-9.271-7.163l33.293-57.668c24.478 16.444 45.577 37.544 62.022 62.022l-57.668 33.292c-2.269-3.184-4.672-6.265-7.163-9.27zm79.867 1.938c12.773 25.86 20.738 54.496 22.73 84.742h-66.6c-1.705-18.204-6.477-35.528-13.798-51.45zm.044 199.51-57.688-33.308c7.433-16.227 12.082-33.644 13.763-51.459h66.603c-1.961 29.503-9.665 58.348-22.678 84.767z"/><path d="m304.458 426.031h-96.4c-19.902.793-19.887 29.215 0 30h96.4c19.902-.793 19.887-29.215 0-30z"/></g></svg>