<svg id="Layer_1" enable-background="new 0 0 512 512" height="512" viewBox="0 0 512 512" width="512" xmlns="http://www.w3.org/2000/svg"><g><path d="m497 208.867c-.433 0-.76-.268-.833-.638-.075-.366.126-.742.475-.886 7.773-3.221 11.313-12.026 8.167-19.622l-24.594-59.375c-3.147-7.596-11.876-11.318-19.65-8.1-.349.144-.756.021-.963-.291-.21-.313-.168-.734.138-1.04 5.858-5.858 5.858-15.355 0-21.213l-45.443-45.443c-5.858-5.858-15.355-5.858-21.213 0-.306.306-.727.348-1.04.138-.312-.206-.435-.614-.291-.962 3.219-7.774-.504-16.503-8.1-19.65l-59.374-24.595c-7.596-3.146-16.401.395-19.622 8.167-.145.349-.52.55-.886.475-.37-.073-.638-.4-.638-.833 0-8.284-6.716-15-15-15h-64.267c-8.284 0-15 6.716-15 15 0 .433-.268.76-.638.833-.366.075-.742-.126-.886-.475-3.221-7.773-12.026-11.313-19.622-8.167l-59.375 24.594c-7.596 3.147-11.318 11.876-8.1 19.65.144.349.021.756-.291.962-.313.21-.734.168-1.04-.138-5.858-5.858-15.355-5.858-21.213 0l-45.442 45.444c-5.858 5.858-5.858 15.355 0 21.213.306.306.348.727.138 1.04-.206.312-.614.435-.963.291-7.774-3.219-16.503.504-19.65 8.1l-24.594 59.375c-3.146 7.596.395 16.401 8.167 19.622.349.145.55.52.475.886-.073.37-.4.638-.833.638-8.284 0-15 6.716-15 15v64.267c0 8.284 6.716 15 15 15 .433 0 .76.268.833.638.075.366-.126.742-.475.886-7.773 3.221-11.313 12.026-8.167 19.622l24.594 59.375c3.147 7.596 11.876 11.318 19.65 8.1.349-.144.756-.021.963.291.21.313.168.734-.138 1.04-5.858 5.858-5.858 15.355 0 21.213l45.443 45.443c5.858 5.858 15.355 5.858 21.213 0 .306-.306.727-.348 1.04-.138.312.206.435.614.291.963-3.219 7.774.504 16.503 8.1 19.65l59.375 24.594c7.596 3.146 16.401-.395 19.622-8.167.145-.349.52-.55.886-.475.37.073.638.4.638.833 0 8.284 6.716 15 15 15h64.267c8.284 0 15-6.716 15-15 0-.433.268-.76.638-.833.366-.075.742.126.886.475 3.221 7.773 12.026 11.313 19.622 8.167l59.375-24.594c7.596-3.147 11.318-11.876 8.1-19.65-.144-.349-.021-.756.291-.963.313-.21.734-.168 1.04.138 5.858 5.858 15.355 5.858 21.213 0l45.443-45.443c5.858-5.858 5.858-15.355 0-21.213-.306-.306-.348-.727-.138-1.04.206-.312.614-.435.963-.291 7.774 3.219 16.503-.504 19.65-8.1l24.594-59.375c3.146-7.596-.395-16.401-8.167-19.622-.349-.145-.55-.52-.475-.886.073-.37.4-.638.833-.638 8.284 0 15-6.716 15-15v-64.267c-.002-8.284-6.718-15-15.002-15zm-15 68.156c-7.692 4.29-13.446 11.802-15.256 20.892-1.809 9.093.632 18.237 6.099 25.145l-16.088 38.846c-8.749 1.019-16.943 5.758-22.1 13.468-5.149 7.709-6.392 17.093-3.982 25.569l-29.73 29.73c-8.475-2.409-17.862-1.165-25.577 3.987-7.705 5.154-12.443 13.346-13.461 22.095l-38.845 16.088c-6.908-5.468-16.052-7.908-25.147-6.099-9.083 1.809-16.592 7.556-20.882 15.256h-42.055c-4.29-7.692-11.802-13.446-20.892-15.256-9.094-1.808-18.236.632-25.145 6.1l-38.846-16.088c-1.019-8.749-5.758-16.942-13.468-22.1-7.705-5.146-17.08-6.391-25.563-3.976l-29.736-29.736c2.41-8.477 1.166-17.862-3.987-25.577-5.154-7.706-13.345-12.443-22.095-13.46l-16.088-38.845c5.467-6.908 7.908-16.053 6.099-25.147-1.808-9.085-7.555-16.593-15.255-20.884v-42.055c7.692-4.29 13.446-11.802 15.256-20.892 1.809-9.093-.632-18.237-6.099-25.145l16.088-38.846c8.749-1.019 16.943-5.758 22.1-13.468 5.149-7.709 6.392-17.093 3.982-25.569l29.73-29.73c8.476 2.409 17.862 1.166 25.577-3.987 7.705-5.154 12.443-13.346 13.461-22.095l38.845-16.088c6.908 5.468 16.054 7.909 25.147 6.099 9.083-1.808 16.591-7.555 20.882-15.255h42.055c4.29 7.692 11.802 13.446 20.892 15.256 9.094 1.808 18.237-.632 25.145-6.1l38.846 16.088c1.019 8.749 5.758 16.942 13.468 22.1 7.705 5.146 17.081 6.39 25.563 3.976l29.736 29.736c-2.41 8.477-1.166 17.862 3.987 25.577 5.154 7.706 13.345 12.443 22.095 13.46l16.088 38.845c-5.467 6.908-7.908 16.053-6.099 25.147 1.809 9.083 7.556 16.591 15.256 20.882v42.056z"/><path d="m256 96.4c-88.004 0-159.6 71.596-159.6 159.6 8.767 211.731 310.466 211.67 319.201-.001-.001-88.003-71.597-159.599-159.601-159.599zm16.669 31.063c-2.17 37.164-11.453 58.915-16.669 64.452-5.217-5.537-14.499-27.288-16.669-64.452 11.017-1.414 22.321-1.414 33.338 0zm-62.882 7.46c1.509 19.035 4.842 36.574 9.712 50.691 1.987 5.76 4.132 10.667 6.377 14.838-10.727 5.84-19.583 14.697-25.424 25.424-19.672-10.025-40.213-13.771-65.529-16.089 13.154-34.346 40.518-61.71 74.864-74.864zm-83.387 121.077c0-5.587.356-11.161 1.063-16.669 37.165 2.17 58.915 11.453 64.452 16.669-5.537 5.217-27.287 14.499-64.452 16.669-.707-5.508-1.063-11.082-1.063-16.669zm93.1 70.386c-4.87 14.117-8.203 31.656-9.712 50.691-34.346-13.154-61.71-40.518-74.864-74.864 25.315-2.317 45.858-6.065 65.529-16.089 5.84 10.727 14.697 19.583 25.424 25.424-2.246 4.171-4.39 9.078-6.377 14.838zm19.831 58.151c2.17-37.164 11.453-58.915 16.669-64.452 5.217 5.537 14.499 27.288 16.669 64.452-11.017 1.414-22.321 1.414-33.338 0zm16.669-95.337c-18.307 0-33.2-14.894-33.2-33.2 1.824-44.045 64.583-44.032 66.4 0 0 18.307-14.893 33.2-33.2 33.2zm46.213 87.877c-1.509-19.035-4.842-36.574-9.712-50.691-1.987-5.76-4.132-10.667-6.377-14.838 10.727-5.84 19.583-14.697 25.424-25.424 19.672 10.025 40.212 13.771 65.529 16.089-13.154 34.346-40.518 61.71-74.864 74.864zm83.387-121.077c0 5.587-.356 11.161-1.063 16.669-37.165-2.17-58.915-11.453-64.452-16.669 5.537-5.217 27.287-14.499 64.452-16.669.707 5.508 1.063 11.082 1.063 16.669zm-59.214-36.5c-5.76 1.987-10.667 4.132-14.838 6.377-5.84-10.727-14.697-19.583-25.424-25.424 2.245-4.171 4.39-9.078 6.377-14.838 4.87-14.117 8.203-31.656 9.712-50.691 34.346 13.154 61.71 40.518 74.864 74.864-19.035 1.508-36.574 4.841-50.691 9.712z"/></g></svg>