<svg id="Layer_1" enable-background="new 0 0 512 512" height="512" viewBox="0 0 512 512" width="512" xmlns="http://www.w3.org/2000/svg"><g><path d="m269.416 136.825c-5.404-10.989-21.43-10.986-26.832 0l-80.333 160.667c-2.888 5.775-1.756 12.749 2.81 17.314 4.564 4.566 11.542 5.696 17.314 2.81l73.625-36.812 73.625 36.813c6.17 3.085 13.082 1.423 17.314-2.81 4.565-4.565 5.697-11.54 2.81-17.314zm-6.708 113.792c-4.222-2.111-9.194-2.111-13.416 0l-40.084 20.042 46.792-93.585 46.792 93.584z"/><path d="m464.866 48.2h-129.6v-1.067c.001-25.989-21.143-47.133-47.132-47.133h-64.268c-25.989 0-47.133 21.144-47.133 47.133v1.067h-129.6c-25.988 0-47.133 21.144-47.133 47.133v321.333c0 26.578 21.647 47.134 47.134 47.134h129.6v1.067c0 25.989 21.144 47.133 47.133 47.133h64.268c25.989 0 47.133-21.144 47.133-47.133v-1.067h129.6c25.485 0 47.134-20.557 47.134-47.133v-321.334c-.002-25.989-21.147-47.133-47.136-47.133zm-258.133-1.067c0-9.447 7.686-17.133 17.133-17.133h64.268c9.447 0 17.133 7.686 17.133 17.133v17.133h-98.533v-17.133zm98.534 417.734c0 9.447-7.686 17.133-17.133 17.133h-64.268c-9.447 0-17.133-7.686-17.133-17.133v-17.133h98.533v17.133zm176.733-48.2c0 9.582-7.767 17.133-17.134 17.133h-129.6v-1.066c0-8.284-6.716-15-15-15h-128.533c-8.284 0-15 6.716-15 15v1.066h-129.6c-9.352 0-17.133-7.539-17.133-17.133v-36.421c5.312 2.079 11.093 3.222 17.134 3.222h417.732c6.041 0 11.821-1.143 17.134-3.222zm0-80.334c0 9.581-7.767 17.133-17.134 17.133h-417.732c-9.353 0-17.134-7.539-17.134-17.133v-241c0-9.447 7.687-17.133 17.134-17.133h129.6v1.066c0 8.284 6.716 15 15 15h128.533c8.284 0 15-6.716 15-15v-1.066h129.6c9.447 0 17.134 7.686 17.134 17.133v241z"/></g></svg>