<svg id="Layer_1" enable-background="new 0 0 511.787 511.787" height="512" viewBox="0 0 511.787 511.787" width="512" xmlns="http://www.w3.org/2000/svg"><g><path d="m400.493 64.053h-67.786c-4.901-14.559-16.725-25.964-31.544-30.271-13.416-45.043-77.145-45.045-90.542 0-14.819 4.307-26.642 15.711-31.543 30.27h-67.786c-25.989 0-47.133 21.144-47.133 47.133v353.467c0 12.597 4.906 24.435 13.802 33.318 8.897 8.909 20.735 13.815 33.332 13.815h289.2c12.597 0 24.435-4.906 33.318-13.802 8.909-8.897 13.815-20.735 13.815-33.332v-353.464c.001-25.99-21.143-47.134-47.133-47.134zm-176.733-2.133c8.284 0 15-6.732 15-15.016 0-9.438 7.679-17.117 17.133-17.117 9.447 0 17.133 7.686 17.133 17.133 0 8.284 6.716 15 15 15 22.716.933 22.736 33.324 0 34.267h-64.266c-22.735-.944-22.718-33.332 0-34.267zm193.867 402.733c0 4.576-1.781 8.875-5.028 12.119-3.23 3.234-7.529 5.015-12.105 5.015h-289.2c-4.576 0-8.875-1.781-12.119-5.028-3.234-3.23-5.015-7.529-5.015-12.105v-353.467c0-9.447 7.686-17.133 17.133-17.133h67.78c6.279 18.659 23.938 32.133 44.687 32.133h64.267c20.749 0 38.408-13.474 44.687-32.133h67.78c9.447 0 17.133 7.686 17.133 17.133z"/><path d="m189.053 148.78-21.527 21.526-5.459-5.46c-5.858-5.857-15.355-5.858-21.213 0s-5.858 15.355 0 21.213l16.066 16.067c5.586 5.81 15.628 5.81 21.213 0l32.133-32.133c5.858-5.858 5.858-15.355 0-21.213-5.857-5.858-15.355-5.858-21.213 0z"/><path d="m189.053 229.113-21.526 21.527-5.459-5.46c-5.858-5.857-15.355-5.858-21.213 0s-5.858 15.355 0 21.213l16.066 16.067c5.586 5.811 15.628 5.81 21.214 0l32.133-32.134c13.511-14.633-6.597-34.72-21.215-21.213z"/><path d="m189.053 309.447-21.527 21.526-5.46-5.459c-5.857-5.858-15.355-5.858-21.213 0s-5.858 15.355 0 21.213l16.066 16.066c5.857 5.858 15.356 5.858 21.213 0l32.133-32.133c5.858-5.858 5.858-15.355 0-21.213-5.856-5.859-15.354-5.859-21.212 0z"/><path d="m368.36 160.453h-96.4c-19.902.793-19.887 29.215 0 30h96.4c19.902-.792 19.887-29.215 0-30z"/><path d="m271.96 270.787h64.267c19.902-.793 19.887-29.215 0-30h-64.267c-19.902.792-19.887 29.214 0 30z"/><path d="m368.36 321.12h-96.4c-19.902.793-19.887 29.215 0 30h96.4c19.902-.792 19.887-29.215 0-30z"/><path d="m336.227 401.453h-64.267c-19.902.793-19.887 29.215 0 30h64.267c19.902-.792 19.887-29.215 0-30z"/></g></svg>