<svg id="Layer_1" enable-background="new 0 0 512 512" height="512" viewBox="0 0 512 512" width="512" xmlns="http://www.w3.org/2000/svg"><g><path d="m416.747 407.567c77.622-.245 100.648-110.715 23.034-132.635v-163.532c0-3.979-1.581-7.793-4.394-10.606l-59.873-59.874v-25.92c0-8.284-6.716-15-15-15h-257.067c-8.284 0-15 6.716-15 15v405.195c-18.655 6.281-32.133 23.926-32.133 44.672v17.133h-17.133c-19.902.793-19.887 29.215 0 30h385.6c19.902-.793 19.887-29.215 0-30h-17.133v-17.133c0-20.745-13.478-38.391-32.134-44.672v-25.825c11.646 8.296 25.872 13.197 41.233 13.197zm-41.233-324.221 34.267 34.267v75.187h-34.267zm0 139.454h34.267v65.333c0 8.284 6.716 15 15 15 18.306 0 33.2 14.894 33.2 33.2-2.143 54.69-80.269 54.685-82.467 0zm-257.067-192.8h227.066v387.733h-227.066zm259.2 434.867v17.133h-291.333v-17.133c0-9.447 7.686-17.133 17.133-17.133h257.066c9.448-.001 17.134 7.685 17.134 17.133z"/><path d="m296.247 64.267h-128.533c-8.284 0-15 6.716-15 15v128.533c0 8.284 6.716 15 15 15h128.533c8.284 0 15-6.716 15-15v-128.533c0-8.285-6.716-15-15-15zm-15 128.533h-98.533v-98.533h98.533z"/></g></svg>