<svg id="Layer_1" enable-background="new 0 0 511.964 511.964" height="512" viewBox="0 0 511.964 511.964" width="512" xmlns="http://www.w3.org/2000/svg"><g><path d="m511.852 73.635c.564-4.584-1.015-9.173-4.281-12.439l-56.804-56.803c-3.266-3.267-7.86-4.842-12.438-4.281-4.585.564-8.653 3.209-11.03 7.169l-34.086 56.804c-3.541 5.902-2.611 13.458 2.256 18.325l34.086 34.085c3.536 3.537 10.974 6.665 18.324 2.256l56.804-34.085c3.96-2.378 6.604-6.446 7.169-11.031zm-69.366 13.365-17.522-17.522 18.175-30.289 29.636 29.636z"/><path d="m336.297 62.133c8.284 0 15-6.716 15-15v-32.133c-.793-19.902-29.215-19.887-30 0v32.133c0 8.285 6.716 15 15 15z"/><path d="m496.964 160.667h-32.134c-19.902.793-19.887 29.215 0 30h32.134c19.902-.793 19.887-29.215 0-30z"/><path d="m365.558 100.962c-5.856-5.857-15.354-5.858-21.213 0l-60.202 60.202c-7.419 7.419-17.697 11.674-28.187 11.674-47.954 0-93.042 18.675-126.969 52.593l-124.629 124.629c-5.81 5.585-5.811 15.627 0 21.213l136.334 136.334c5.586 5.811 15.628 5.81 21.213 0l124.638-124.638c33.91-33.918 52.585-79.006 52.585-126.968 0-10.489 4.255-20.76 11.673-28.178l60.202-60.202c5.858-5.857 5.853-15.361 0-21.213zm-214.26 374.825-115.12-115.121 26.649-26.649 115.12 115.12zm47.862-47.864-115.119-115.119 46.956-46.951 115.114 115.114zm68.149-68.185-115.083-115.082c24.391-23.503 55.385-37.783 88.739-41.081v52.425c0 8.284 6.716 15 15 15h52.426c-3.299 33.356-17.583 64.355-41.082 88.738zm62.278-153.13c-9.583 9.583-16.039 21.46-18.854 34.392h-39.769v-39.768c12.931-2.816 24.809-9.272 34.392-18.855l49.596-49.595 24.231 24.231z"/></g></svg>