<svg id="Layer_1" enable-background="new 0 0 512 512" height="512" viewBox="0 0 512 512" width="512" xmlns="http://www.w3.org/2000/svg"><g><path d="m497 128.533h-1.066v-49.266c0-8.284-6.716-15-15-15h-33.2v-49.267c0-8.284-6.716-15-15-15h-64.267c-8.284 0-15 6.716-15 15v49.267h-194.934v-49.267c0-8.284-6.716-15-15-15h-64.266c-8.284 0-15 6.716-15 15v49.267h-33.2c-8.284 0-15 6.716-15 15v49.267h-1.067c-8.284 0-15 6.716-15 15v64.266c0 8.284 6.716 15 15 15h17.134v274.2c0 8.284 6.716 15 15 15h417.732c8.284 0 15-6.716 15-15v-274.2h17.134c8.284 0 15-6.716 15-15v-64.267c0-8.284-6.716-15-15-15zm-113.533-98.533h34.267v34.267h-34.267zm-289.2 0h34.267v34.267h-34.267zm-48.201 64.267h419.867v34.267h-419.867zm403.8 387.733h-387.732v-259.2h387.732zm32.134-289.2h-452v-34.267h452z"/><path d="m143.533 383.467h65.333v49.267c0 5.532 3.045 10.615 7.922 13.225 4.878 2.611 10.796 2.323 15.398-.744l144.601-96.4c5.5-3.667 7.951-10.501 6.036-16.828s-7.746-10.653-14.356-10.653h-65.333v-49.267c.088-11.862-13.503-19.132-23.32-12.481l-144.601 96.4c-5.5 3.667-7.951 10.501-6.036 16.828 1.915 6.326 7.746 10.653 14.356 10.653zm129.601-83.372v36.239c0 8.284 6.716 15 15 15h30.791l-80.059 53.372v-36.239c0-8.284-6.716-15-15-15h-30.791z"/></g></svg>