<svg id="Layer_1" enable-background="new 0 0 512 512" height="512" viewBox="0 0 512 512" width="512" xmlns="http://www.w3.org/2000/svg"><g><path d="m309.622 250.541c14.641 13.514 34.717-6.608 21.211-21.215-7.516-7.515-7.38-19.606 0-26.985 19.352-19.348 18.994-50.425 0-69.415-14.634-13.511-34.719 6.599-21.211 21.215 7.516 7.515 7.38 19.607 0 26.985-19.351 19.346-18.996 50.423 0 69.415z"/><path d="m229.288 250.541c14.641 13.514 34.717-6.608 21.211-21.215-7.503-7.502-7.395-19.591 0-26.984 19.37-19.366 18.968-50.452 0-69.416-5.858-5.857-15.356-5.856-21.213.002s-5.856 15.356.002 21.213c7.517 7.515 7.38 19.606 0 26.985-19.35 19.346-18.996 50.423 0 69.415z"/><path d="m496.96 0h-96.4c-8.284 0-15 6.716-15 15v317.46c-5.881-4.505-14.326-4.082-19.707 1.3l-13.494 13.493-21.527-21.526c-5.857-5.858-15.355-5.858-21.213 0l-21.527 21.527-30.942-30.941c-34.631-36.095-91.314-32.026-133.043-11.159l-78.082 39.042v-23.929c0-8.284-6.716-15-15-15h-16.065c-19.902.793-19.887 29.215 0 30h1.067v129.6c0 8.284 6.716 15 15 15h51.728c14.486 42.59 74.875 42.563 89.344 0h103.456c14.486 42.59 74.875 42.563 89.344 0h20.662v17.133c0 8.284 6.716 15 15 15h96.4c8.284 0 15-6.716 15-15v-482c-.001-8.284-6.716-15-15.001-15zm-359.435 331.986c30.452-14.813 72.593-21.139 98.414 5.541l15.941 15.94h-157.314zm-10.098 150.014c-9.447 0-17.133-7.686-17.133-17.133.941-22.73 33.329-22.723 34.267 0 0 9.447-7.687 17.133-17.134 17.133zm192.8 0c-9.447 0-17.133-7.686-17.133-17.133.941-22.73 33.329-22.723 34.267 0-.001 9.447-7.687 17.133-17.134 17.133zm65.334-32.133h-20.647c-14.476-42.576-74.914-42.577-89.375 0h-103.425c-14.476-42.579-74.919-42.573-89.378 0h-36.709v-66.4h242.066c3.979 0 7.793-1.581 10.606-4.394l21.527-21.526 21.527 21.526c5.857 5.858 15.355 5.858 21.213 0l13.494-13.493 9.1 9.1v75.187zm96.399 32.133h-66.4v-452h66.4z"/></g></svg>