<svg id="Layer_1" enable-background="new 0 0 512 512" height="512" viewBox="0 0 512 512" width="512" xmlns="http://www.w3.org/2000/svg"><g><path d="m497 232.967h-64.267c-8.284 0-15 6.716-15 15v17.133h-34.267v-65.333c.001-70.399-56.952-127.467-127.466-127.467h-32.133c-123.658 0-223.867 100.058-223.867 223.867 0 61.426 49.974 111.4 111.4 111.4h306.333v17.133c0 8.284 6.716 15 15 15h64.267c8.284 0 15-6.716 15-15v-176.733c0-8.284-6.716-15-15-15zm-143.533 144.6h-242.067c-44.884 0-81.4-36.516-81.4-81.4 0-106.899 86.968-193.867 193.867-193.867h32.133c53.824 0 97.467 43.548 97.467 97.467zm64.266 0h-34.267v-82.467h34.267zm64.267 32.133h-34.267v-146.733h34.267z"/><path d="m256 136.567h-32.133c-88.143 0-159.6 71.308-159.6 159.6 0 26.304 21.351 47.133 47.133 47.133h192.8c8.284 0 15-6.716 15-15v-128.533c0-34.907-28.242-63.2-63.2-63.2zm33.2 176.733h-177.8c-9.339 0-17.133-7.551-17.133-17.133 0-71.577 57.906-129.6 129.6-129.6h32.133c18.351 0 33.2 14.843 33.2 33.2z"/></g></svg>