<svg id="Layer_1" enable-background="new 0 0 512 512" height="512" viewBox="0 0 512 512" width="512" xmlns="http://www.w3.org/2000/svg"><g><path d="m111.4 64.267h-32.133c-8.284 0-15 6.716-15 15v96.4c.793 19.902 29.215 19.887 30 0v-17.133h17.133c62.544-2.597 62.496-91.694 0-94.267zm0 64.266h-17.133v-34.266h17.133c22.735.943 22.717 33.331 0 34.266z"/><path d="m408.634 224.933h-32.134c-8.284 0-15 6.716-15 15v96.4c.793 19.902 29.215 19.887 30 0v-17.133h17.134c62.543-2.596 62.495-91.694 0-94.267zm0 64.267h-17.134v-34.267h17.134c22.734.944 22.717 33.332 0 34.267z"/><path d="m191.733 190.667c8.284 0 15-6.716 15-15v-96.4c-.793-19.902-29.215-19.887-30 0v96.4c0 8.284 6.716 15 15 15z"/><path d="m249.033 175.667c.793 19.902 29.215 19.887 30 0v-81.4h9.101c19.902-.793 19.887-29.215 0-30h-48.2c-19.902.793-19.887 29.215 0 30h9.1v81.4z"/><path d="m215.833 224.933h-48.199c-19.902.793-19.887 29.215 0 30h9.1v81.4c.793 19.902 29.215 19.887 30 0v-81.4h9.1c19.901-.792 19.886-29.215-.001-30z"/><path d="m125.583 285.848-37.581-21.476c-1.091-.624-1.769-1.791-1.769-3.054 0-3.521 2.864-6.385 6.385-6.385h26.815c19.902-.793 19.887-29.215 0-30h-26.815c-35.195-.155-50.696 47.093-19.501 65.486l37.58 21.475c1.092.624 1.77 1.792 1.77 3.055 0 3.521-2.864 6.385-6.385 6.385h-26.815c-19.902.793-19.887 29.215 0 30h26.815c35.194.154 50.696-47.092 19.501-65.486z"/><path d="m292.15 224.933c-28 0-51.15 27.601-51.15 63.2 2.405 83.893 99.945 83.775 102.3-.001 0-35.676-23.217-63.199-51.15-63.199zm0 96.4c-11.267 0-21.15-15.514-21.15-33.2s9.884-33.2 21.15-33.2 21.149 15.514 21.149 33.2-9.882 33.2-21.149 33.2z"/><path d="m432.733 0h-353.466c-43.778 0-79.267 35.414-79.267 79.267v257.067c0 43.772 35.414 79.266 79.267 79.266h129.6v81.4c0 8.284 6.716 15 15 15h64.268c8.284 0 15-6.716 15-15v-81.4h129.6c43.778 0 79.267-35.414 79.267-79.267v-257.066c-.002-43.773-35.416-79.267-79.269-79.267zm-159.599 482h-34.268v-66.4h34.268zm208.866-145.667c0 27.206-22.01 49.267-49.267 49.267h-353.466c-27.211 0-49.267-22.01-49.267-49.267v-257.066c0-27.206 22.01-49.267 49.267-49.267h353.467c27.21 0 49.266 22.01 49.266 49.267z"/></g></svg>