<svg id="Layer_1" enable-background="new 0 0 512 512" height="512" viewBox="0 0 512 512" width="512" xmlns="http://www.w3.org/2000/svg"><path d="m497 192.8c-8.284 0-15 6.716-15 15v17.133h-50.333v-49.267c0-8.284-6.716-15-15-15h-224.934c-8.284 0-15 6.716-15 15v1.067h-26.987l-43.807-43.807c-2.812-2.813-6.628-4.394-10.606-4.394h-80.333c-8.284 0-15 6.716-15 15v64.268c0 8.284 6.716 15 15 15h47.498l43.807 43.807c2.812 2.813 6.628 4.394 10.606 4.394h59.822v97.467c0 8.284 6.716 15 15 15h224.934c8.284 0 15-6.716 15-15v-49.268h50.333v17.133c.793 19.902 29.215 19.887 30 0v-128.533c0-8.284-6.716-15-15-15zm-320.267 48.2h-53.609l-43.807-43.807c-2.812-2.813-6.628-4.394-10.606-4.394h-38.711v-34.267h59.12l43.807 43.807c2.812 2.813 6.628 4.394 10.606 4.394h33.2zm224.934 112.467h-194.934v-162.8h194.934zm80.333-64.267h-50.333v-34.267h50.333z"/></svg>