<svg id="Layer_1" enable-background="new 0 0 511.322 511.322" height="512" viewBox="0 0 511.322 511.322" width="512" xmlns="http://www.w3.org/2000/svg"><path d="m390.903 354.373s-55.976-27.988-55.976-27.988v-46.345c28.31-12.108 48.2-40.232 48.2-72.918v-80.333c-6.817-168.992-248.278-169.112-254.934 0v80.333c0 32.687 19.89 60.811 48.2 72.918v46.345s-55.975 27.988-55.976 27.988c-21.232 10.614-72.558 46.45-72.558 117.399v24.55c0 8.284 6.716 15 15 15h385.6c8.284 0 15-6.716 15-15v-24.55c.002-70.93-51.297-106.772-72.556-117.399zm-278.775 126.949h-34.267v-9.55c0-29.698 12.691-57.085 34.267-76zm143.533-452c48.643 0 89.078 35.82 96.314 82.467h-192.643c7.077-46.13 46.983-82.467 96.329-82.467zm-97.467 112.467h194.934v17.133c0 18.307-14.894 33.2-33.2 33.2h-128.534c-18.307 0-33.2-14.893-33.2-33.2zm.342 71.153c9.796 5.983 21.074 9.18 32.842 9.18h128.549c12.028 0 23.283-3.378 32.865-9.234-2.863 24.459-23.715 43.501-48.931 43.501h-96.4c-25.198 0-46.038-19.013-48.925-43.447zm146.392 73.447v34.267h-98.533v-34.267zm-64.267 194.933h-98.533v-34.267h98.533zm0-64.267h-98.533v-39.996l52.808-26.404h45.726v66.4zm128.533 64.267h-98.533v-34.267h98.533zm0-64.267h-98.533v-66.4h45.726l52.808 26.404v39.996zm64.267 64.267h-34.267v-85.55c21.575 18.915 34.267 46.302 34.267 76z"/></svg>