<svg id="Layer_1" enable-background="new 0 0 512 512" height="512" viewBox="0 0 512 512" width="512" xmlns="http://www.w3.org/2000/svg"><path d="m391.24 355.05c-.003-.002-88.106-44.053-88.106-44.053v-25.733c27.663-6.724 48.199-31.615 48.199-61.397v-1.067h17.134c25.806 0 47.133-20.855 47.133-47.133v-32.134c0-25.8-20.847-47.133-47.133-47.133h-5.042c6.188-16.569 6.105-35.191-.974-52.283-11.098-26.8-37.013-44.117-66.02-44.117h-80.862c-29.007 0-54.921 17.317-66.018 44.116-7.08 17.092-7.163 35.714-.975 52.284h-5.043c-25.855 0-47.133 20.899-47.133 47.133v32.134c0 25.801 20.847 47.133 47.133 47.133h17.133v1.066c0 29.738 20.506 54.668 48.2 61.398v25.732s-88.103 44.051-88.108 44.053c-21.233 10.616-72.558 46.451-72.558 117.401v24.55c0 8.284 6.716 15 15 15h385.6c8.284 0 15-6.716 15-15v-24.55c0-70.931-51.297-106.771-72.56-117.4zm-39.907-228.65h17.134c9.476 0 17.133 7.673 17.133 17.133v32.134c0 9.457-7.654 17.133-17.133 17.133h-17.134zm-190.666 66.4h-17.133c-9.476 0-17.133-7.676-17.133-17.133v-32.134c0-9.328 7.537-17.133 17.133-17.133h17.133zm16.962-104.575c-4.505-10.165-4.8-21.916-.362-32.629 6.439-15.549 21.473-25.596 38.302-25.596h80.862c16.829 0 31.863 10.047 38.303 25.597 4.438 10.713 4.143 22.463-.362 32.628l-19.565-19.565c-2.812-2.813-6.628-4.394-10.606-4.394h-96.4c-3.979 0-7.793 1.58-10.606 4.394zm13.038 135.641v-106.253l23.347-23.347h83.974l23.346 23.346v75.188h-49.267c-19.902.793-19.887 29.215 0 30h49.267v1.066c0 18.344-14.839 33.2-33.199 33.2h-64.267c-18.38 0-33.201-14.875-33.201-33.2zm82.467 63.2v33.2c-.891 22.715-33.368 22.737-34.267 0v-33.2zm-194.934 194.934v-9.55c0-35.025 17.652-66.837 46.712-85.325l13.475 13.475-21.526 21.527c-5.858 5.857-5.858 15.355 0 21.213l38.659 38.66zm119.747 0-49.267-49.267 21.527-21.527c5.858-5.857 5.852-15.361 0-21.213l-17.417-17.417 31.071-15.536 49.984 124.96zm12.84-138.423 3.341-1.671c17.359 33.824 66.39 33.807 83.739-.002l3.347 1.673-45.214 113.034zm67.368 138.423 49.984-124.96 31.071 15.536-17.417 17.417c-5.858 5.857-5.858 15.355 0 21.213l21.526 21.527-49.265 49.267zm155.645 0h-77.32l38.66-38.66c5.858-5.857 5.858-15.354 0-21.213l-21.527-21.527 13.476-13.475c29.059 18.488 46.711 50.3 46.711 85.325z"/></svg>