<svg id="Layer_1" enable-background="new 0 0 512 512" height="512" viewBox="0 0 512 512" width="512" xmlns="http://www.w3.org/2000/svg"><g><path d="m507.606 72.556-68.163-68.163c-5.857-5.857-15.355-5.857-21.213 0l-73.102 73.102c-9.623-4.772-34.173-11.271-54.291 8.846l-90.889 90.889c-5.858 5.857-5.858 15.355 0 21.213l113.608 113.607c5.86 5.86 15.356 5.857 21.213 0l90.889-90.889c20.111-20.111 13.625-44.654 8.846-54.29l73.102-73.102c5.859-5.857 5.859-15.355 0-21.213zm-103.161 127.393-80.282 80.282-92.395-92.395 80.282-80.282c6.843-6.843 17.693-6.539 24.229-.002l68.166 68.166c6.54 6.539 6.843 17.388 0 24.231zm10.607-56.051-46.95-46.95 60.735-60.735 46.95 46.95z"/><path d="m209.803 256.753c-5.857-5.857-15.355-5.857-21.213 0l-34.838 34.838-12.112-12.112c-24.687-24.689-64.656-24.724-89.385 0-24.674 24.678-24.719 64.656.001 89.376.257.257.506.506.757.757l-48.619 48.619c-5.858 5.857-5.858 15.355 0 21.213l68.163 68.163c5.857 5.857 15.355 5.857 21.213 0l48.619-48.619c61.202 58.368 147.489-26.462 90.132-88.627l-12.112-12.112 34.838-34.838c5.858-5.857 5.858-15.355 0-21.213zm-126.64 219.034-46.95-46.95 60.735-60.735 46.95 46.95zm128.145-37.256c-12.963 12.963-33.969 12.981-46.949 0l-.757-.757 12.116-12.116c5.858-5.857 5.858-15.355 0-21.213l-68.163-68.163c-5.857-5.857-15.355-5.857-21.213 0l-12.116 12.116-.757-.757c-29.916-32.367 14.607-76.875 46.958-46.95l90.881 90.883c12.978 12.977 12.986 33.971 0 46.957zm-12.111-101.496-24.231-24.231 24.231-24.231 24.231 24.231z"/></g></svg>