<svg id="Layer_1" enable-background="new 0 0 511.852 511.852" height="512" viewBox="0 0 511.852 511.852" width="512" xmlns="http://www.w3.org/2000/svg"><path d="m384.462 48.052c-6.561 0-12.811 1.351-18.493 3.784-6.871-29.934-42.917-45.695-69.746-29.343-17.974-30.071-62.779-29.918-80.559.016-30.873-18.677-71.436 4.428-71.135 40.542v132.863c-29.733-12.199-64.728 10.733-64.267 43.871v96.399c0 38.579 27.709 70.791 64.267 77.824v82.843c0 8.284 6.716 15 15 15h257.066c8.284 0 15-6.716 15-15v-401.666c0-25.989-21.144-47.133-47.133-47.133zm-239.934 335.066c-19.854-6.36-34.267-24.995-34.267-46.933v-96.399c.869-22.716 33.389-22.732 34.267 0zm158.534-320.066c.898-22.663 33.339-22.794 34.267 0v141.454l-34.267-8.566zm-64.267-16.066c.898-22.663 33.338-22.794 34.267 0v148.954l-34.267 8.566zm-64.267 16.066c.898-22.663 33.338-22.794 34.267 0v148.954l-34.267 8.567zm227.067 418.8h-227.067v-66.4h227.066v66.4zm0-96.4h-227.067v-133.954l113.533-28.384 113.533 28.384v133.954zm0-164.878-34.267-8.567v-116.822c.944-22.735 33.331-22.717 34.267 0z"/></svg>