<svg id="Layer_1" enable-background="new 0 0 512.032 512.032" height="512" viewBox="0 0 512.032 512.032" width="512" xmlns="http://www.w3.org/2000/svg"><g><path d="m497.016 369.566h-145.666v-81.399c0-8.284-6.716-15-15-15h-160.667c-8.284 0-15 6.716-15 15v33.199h-145.667c-8.284 0-15 6.716-15 15v160.667c0 8.284 6.716 15 15 15h482c8.284 0 15-6.716 15-15v-112.467c0-8.284-6.716-15-15-15zm-336.333 112.467h-130.667v-130.667h130.667zm160.667 0h-130.667v-178.867h130.667zm160.666 0h-130.666v-82.467h130.667v82.467z"/><path d="m120.775 92.715 56.707 28.354c4.528 29.762 30.266 53.563 62.468 53.563h1.067v34.267h-33.2c-19.902.793-19.887 29.215 0 30h96.4c19.902-.793 19.887-29.215 0-30h-33.2v-34.267h1.067c32.124 0 57.927-23.717 62.468-53.563l56.707-28.354c5.082-2.54 8.292-7.734 8.292-13.416v-64.267c0-8.284-6.716-15-15-15h-257.068c-8.284 0-15 6.716-15 15v64.267c0 5.682 3.21 10.876 8.292 13.416zm214.508-62.683h34.267v39.996l-34.267 17.134zm-128.533 0h98.533v81.4c0 18.36-14.855 33.199-33.2 33.199h-32.134c-18.359 0-33.2-14.851-33.2-33.199v-81.4zm-64.267 0h34.267v57.13l-34.267-17.134z"/><path d="m15.016 126.433h32.134c19.902-.793 19.887-29.215 0-30h-32.134c-19.902.792-19.887 29.215 0 30z"/><path d="m449.883 111.433c0 8.284 6.716 15 15 15h32.133c19.902-.793 19.887-29.215 0-30h-32.133c-8.284 0-15 6.716-15 15z"/><path d="m27.889 28.026 27.828 16.066c7.935 4.583 16.832.845 20.49-5.49 4.142-7.175 1.684-16.349-5.49-20.49l-27.828-16.066c-17.631-9.268-31.83 15.359-15 25.98z"/><path d="m456.316 44.093 27.828-16.066c16.84-10.635 2.614-35.248-15-25.98l-27.828 16.066c-7.174 4.142-9.632 13.315-5.49 20.49 3.486 6.038 12.24 10.255 20.49 5.49z"/><path d="m55.716 178.776-27.828 16.066c-7.174 4.142-9.632 13.315-5.49 20.49 3.486 6.039 12.24 10.256 20.49 5.49l27.828-16.066c7.174-4.142 9.632-13.315 5.49-20.49-4.141-7.175-13.315-9.635-20.49-5.49z"/><path d="m441.316 204.756 27.828 16.066c7.935 4.583 16.832.845 20.49-5.49 4.142-7.175 1.684-16.349-5.49-20.49l-27.828-16.066c-7.176-4.145-16.348-1.684-20.49 5.49-4.142 7.175-1.684 16.349 5.49 20.49z"/></g></svg>