<svg id="Layer_1" enable-background="new 0 0 512 512" height="512" viewBox="0 0 512 512" width="512" xmlns="http://www.w3.org/2000/svg"><path d="m503.708 92.683c5.082-2.54 8.292-7.734 8.292-13.416v-64.267c0-8.284-6.716-15-15-15h-64.267c-5.682 0-10.876 3.21-13.416 8.292l-63.177 126.355-68.006 68.006-65.334-65.333v-58.053c0-43.708-35.559-79.267-79.267-79.267h-64.266c-6.067 0-11.537 3.654-13.859 9.26-2.321 5.605-1.038 12.057 3.252 16.347l53.66 53.66-43.053 43.053-53.66-53.66c-4.29-4.291-10.743-5.574-16.347-3.252-5.605 2.322-9.26 7.791-9.26 13.859v64.267c0 43.707 35.559 79.266 79.267 79.266h58.053l33.201 33.2-166.127 166.127c-5.858 5.857-5.858 15.355 0 21.213l64.267 64.267c5.857 5.857 15.355 5.857 21.213 0l166.126-166.127 33.2 33.2v58.054c0 43.708 35.559 79.267 79.267 79.267h64.267c6.067 0 11.537-3.654 13.858-9.26 2.321-5.605 1.038-12.057-3.252-16.347l-53.66-53.66 43.053-43.054 53.66 53.66c4.29 4.291 10.743 5.574 16.347 3.252 5.605-2.322 9.26-7.791 9.26-13.858v-64.267c0-43.708-35.559-79.267-79.267-79.267h-58.053l-65.334-65.334 68.006-68.006zm-61.704-62.683h39.996v39.996l-79.992 39.996zm-362.737 445.787-43.053-43.054 155.52-155.521 43.053 43.054zm278.593-160.98c2.813 2.813 6.628 4.394 10.606 4.394h64.267c27.166 0 49.267 22.101 49.267 49.267v28.054l-38.66-38.66c-5.857-5.857-15.355-5.857-21.213 0l-64.267 64.267c-5.858 5.857-5.858 15.355 0 21.213l38.66 38.658h-28.053c-27.166 0-49.267-22.101-49.267-49.267v-64.267c0-3.979-1.581-7.794-4.394-10.606l-160.666-160.667c-2.813-2.813-6.628-4.394-10.606-4.394h-64.267c-27.166.001-49.267-22.1-49.267-49.266v-28.054l38.66 38.66c5.857 5.857 15.355 5.857 21.213 0l64.267-64.267c5.858-5.857 5.858-15.355 0-21.213l-38.66-38.659h28.053c27.166 0 49.267 22.101 49.267 49.267v64.267c0 3.979 1.581 7.794 4.394 10.606z"/></svg>