<svg id="Layer_1" enable-background="new 0 0 512 512" height="512" viewBox="0 0 512 512" width="512" xmlns="http://www.w3.org/2000/svg"><path d="m497 83.163h.01z"/><g><path d="m497 0h-68.163c-6.457 0-12.189 4.132-14.23 10.258l-8.987 26.969-26.969 8.987c-4.479 1.492-7.995 5.008-9.488 9.487l-8.988 26.963-26.971 8.995c-4.479 1.493-7.992 5.008-9.485 9.486l-8.988 26.964-26.971 8.995c-2.209.736-4.216 1.977-5.861 3.623l-54.976 54.976-.753-.753c-30.912-30.903-81.2-30.903-112.103 0l-90.891 90.883c-30.901 30.91-30.9 81.198.002 112.1l90.889 90.889c30.902 30.902 81.19 30.903 112.101.002l90.883-90.891c30.902-30.902 30.903-81.19 0-112.103l-.753-.753 54.976-54.976c1.646-1.646 2.887-3.652 3.623-5.861l8.995-26.972 26.963-8.987c4.479-1.493 7.993-5.007 9.486-9.484l8.996-26.972 26.963-8.988c4.479-1.493 7.994-5.009 9.487-9.488l8.987-26.969 26.969-8.987c6.125-2.04 10.257-7.773 10.257-14.23v-68.163c0-8.284-6.716-15-15-15zm-201.163 376.721-90.881 90.889c-19.212 19.206-50.47 19.207-69.677 0l-90.889-90.889c-19.207-19.207-19.206-50.465 0-69.677l90.889-90.881c19.207-19.207 50.465-19.206 69.678.002l90.878 90.878c19.208 19.213 19.209 50.471.002 69.678zm186.163-304.37-23.827 7.94c-4.479 1.493-7.995 5.008-9.488 9.488l-8.988 26.97-26.961 8.987c-4.479 1.493-7.993 5.007-9.486 9.484l-8.996 26.972-26.963 8.988c-4.479 1.493-7.993 5.007-9.486 9.485l-10.247 30.727-52.435 52.435-46.949-46.949 52.435-52.435 30.727-10.247c4.479-1.493 7.992-5.008 9.485-9.486l8.988-26.964 26.971-8.995c4.479-1.493 7.992-5.008 9.485-9.486l8.987-26.961 26.97-8.987c4.48-1.492 7.996-5.008 9.488-9.488l7.939-23.829h42.351z"/><path d="m135.279 285.832c-5.857-5.857-15.355-5.857-21.213 0l-45.444 45.444c-5.858 5.857-5.858 15.355 0 21.213l90.89 90.89c5.857 5.858 15.355 5.858 21.213 0l45.444-45.444c5.858-5.857 5.858-15.355 0-21.213zm34.839 125.727-69.677-69.677 24.231-24.231 69.677 69.677z"/></g></svg>