<svg id="Layer_1" enable-background="new 0 0 512 512" height="512" viewBox="0 0 512 512" width="512" xmlns="http://www.w3.org/2000/svg"><g><path d="m507.604 405.999c-13.67-13.665-28.306-26.079-43.804-37.236v-112.823c0-88.004-71.596-159.6-159.6-159.6h-33.2v-1.067c-.793-19.902-29.215-19.887-30 0v1.067h-33.2c-88.004 0-159.6 71.596-159.6 159.6v112.822c-15.498 11.157-30.134 23.571-43.804 37.236-4.8 4.798-5.78 12.22-2.392 18.1 3.39 5.879 10.304 8.749 16.86 7.003 155.136-41.365 319.134-41.365 474.27 0 9.521 2.534 15.372-4.422 16.86-7.003 3.39-5.88 2.41-13.301-2.39-18.099zm-429.404-150.059c0-71.462 58.138-129.6 129.6-129.6h96.4c71.462 0 129.6 58.138 129.6 129.6v93.45c-107.62-63.257-247.981-63.256-355.599 0v-93.45zm177.8 114.139c-61.195 0-122.384 5.891-182.641 17.674 18.13-12.271 37.497-22.692 57.97-31.174 78.953-33.037 170.389-33.037 249.342 0 20.473 8.481 39.84 18.902 57.97 31.174-60.257-11.784-121.446-17.674-182.641-17.674z"/><path d="m175.667 238.806h160.666c19.902-.793 19.887-29.215 0-30h-160.666c-19.902.793-19.887 29.215 0 30z"/></g></svg>