<svg id="Layer_1" enable-background="new 0 0 511.901 511.901" height="512" viewBox="0 0 511.901 511.901" width="512" xmlns="http://www.w3.org/2000/svg"><g><path d="m432.634 0h-321.334c-98.977-.21-148.374 121.423-78.735 190.135l289.201 289.2c68.745 69.668 190.36 20.192 190.135-78.735v-321.333c-.001-43.708-35.559-79.267-79.267-79.267zm-402.734 111.401c0-44.885 36.516-81.4 81.4-81.4 107.988 4.471 107.957 158.345-.001 162.8-44.883-.001-81.399-36.517-81.399-81.4zm370.6 370.599c-44.884 0-81.399-36.516-81.399-81.4 4.471-107.988 158.345-107.956 162.8.001-.001 44.884-36.516 81.399-81.401 81.399zm81.4-157.365c-69.444-74.582-195.945-23.168-192.727 79.794l-181.701-181.702c103.003 3.218 154.351-123.336 79.794-192.727h183.339c-56.677 75.202 36.166 167.951 111.295 111.295zm-49.266-196.102c-27.166 0-49.267-22.101-49.267-49.267 2.706-65.359 95.837-65.34 98.533 0 0 27.167-22.1 49.267-49.266 49.267z"/><path d="m158.433 111.401c0-25.989-21.144-47.134-47.133-47.134-62.528 2.589-62.511 91.687 0 94.267 25.989-.001 47.133-21.144 47.133-47.133zm-64.266 0c0-9.447 7.686-17.134 17.133-17.134 22.729.941 22.724 33.329 0 34.267-9.447-.001-17.133-7.686-17.133-17.133z"/><path d="m432.634 64.267c-8.25 0-15 6.722-15 15 .842 19.901 29.161 19.895 30 0 0-8.278-6.751-15-15-15z"/><path d="m400.5 385.6c-8.25 0-15 6.721-15 15 .842 19.901 29.161 19.895 30 0 0-8.278-6.75-15-15-15z"/></g></svg>