<svg id="Layer_1" enable-background="new 0 0 512 512" height="512" viewBox="0 0 512 512" width="512" xmlns="http://www.w3.org/2000/svg"><g><path d="m350.358 365.111c49.86-58.342 81.309-123.126 81.309-189.444 0-96.863-78.804-175.667-175.667-175.667s-175.667 78.804-175.667 175.667c0 66.311 31.442 131.095 81.309 189.444-92 22.747-113.57 91.486-24.804 126.983 32.088 12.837 74.408 19.906 119.162 19.906s87.074-7.069 119.163-19.906c88.743-35.491 67.217-104.235-24.805-126.983zm-240.025-189.444c0-80.321 65.346-145.667 145.667-145.667s145.667 65.346 145.667 145.667c-3.532 114.285-91.997 193.969-145.667 238.319-13.702-10.658-41.757-33.962-69.468-65.926-20.06-23.14-76.199-90.94-76.199-172.393zm145.667 306.333c-88.921 0-145.667-29.179-145.667-49.267 0-6.871 6.996-15.06 19.194-22.465 13.726-8.333 32.727-15.143 55.294-19.851 33.088 33.824 61.323 53.726 62.574 54.603 5.166 3.617 12.043 3.617 17.209 0 1.251-.877 29.484-20.776 62.572-54.601 48.449 10.138 74.49 28.979 74.49 42.313.001 20.089-56.745 49.268-145.666 49.268z"/><path d="m367.4 175.666c0-61.426-49.974-111.399-111.4-111.399-147.788 6.119-147.744 216.703.001 222.8 61.426-.001 111.399-49.974 111.399-111.401zm-96.4 79.992v-35.319c13.94-4.694 24.979-15.733 29.672-29.672h35.319c-6.151 32.874-32.116 58.839-64.991 64.991zm-15-161.391c39.759 0 72.929 28.659 79.992 66.399h-35.319c-14.486-42.589-74.875-42.562-89.344 0h-35.319c7.061-37.74 40.231-66.399 79.99-66.399zm-15 161.391c-32.875-6.152-58.839-32.116-64.991-64.992h35.319c4.694 13.94 15.732 24.979 29.672 29.672zm-2.133-79.992c0-9.447 7.686-17.133 17.133-17.133 22.731.941 22.723 33.328 0 34.267-9.447 0-17.133-7.687-17.133-17.134z"/></g></svg>