<svg id="Layer_1" enable-background="new 0 0 512 512" height="512" viewBox="0 0 512 512" width="512" xmlns="http://www.w3.org/2000/svg"><path d="m497 94.267c8.284 0 15-6.716 15-15v-64.267c0-8.284-6.716-15-15-15h-482c-8.284 0-15 6.716-15 15v64.267c0 8.284 6.716 15 15 15h43.908v130.667h-43.908c-8.284 0-15 6.716-15 15v257.066c0 8.284 6.716 15 15 15h117.822c8.284 0 15-6.716 15-15v-257.066c0-8.284-6.716-15-15-15h-43.914v-130.667h152.092v130.667h-43.908c-8.284 0-15 6.716-15 15v257.066c0 8.284 6.716 15 15 15h117.822c8.284 0 15-6.716 15-15v-257.066c0-8.284-6.716-15-15-15h-43.914v-130.667h152.092v66.4h-43.917c-8.284 0-15 6.716-15 15v321.333c0 8.284 6.716 15 15 15h117.822c8.284 0 15-6.716 15-15v-321.333c0-8.284-6.716-15-15-15h-43.905v-66.4zm-379.178 387.733h-87.822v-34.267h87.822zm0-64.267h-87.822v-34.267h87.822zm0-64.266h-87.822v-34.267h87.822zm0-98.533v34.266h-87.822v-34.267h87.822zm182.092 227.066h-87.822v-34.267h87.822zm0-64.267h-87.822v-34.267h87.822zm0-64.266h-87.822v-34.267h87.822zm0-98.533v34.266h-87.822v-34.267h87.822zm182.083 227.066h-87.822v-34.267h87.822zm0-64.267h-87.822v-34.267h87.822zm0-64.266h-87.822v-34.267h87.822zm0-64.267h-87.822v-34.267h87.822zm0-98.533v34.267h-87.822v-34.267zm-451.997-126.4v-34.267h452v34.267z"/></svg>