<svg id="Layer_1" enable-background="new 0 0 512 512" height="512" viewBox="0 0 512 512" width="512" xmlns="http://www.w3.org/2000/svg"><path d="m462.569.128c-27.08 0-49.25 22.031-49.423 49.206v157.363h-38.862v-157.139c-2.718-65.427-95.759-65.63-98.854-.225v157.363h-38.861v-157.138c-2.717-65.436-95.759-65.622-98.854-.225v157.363h-38.861v-157.138c-2.718-65.435-95.758-65.622-98.854-.224v206.794c0 27.296 22.085 49.431 49.431 49.431h88.285v157.139c2.723 65.588 96.156 65.546 98.854 0v-157.14h38.861v157.139c2.723 65.597 96.155 65.538 98.854 0v-157.139h38.862v157.139c2.723 65.597 96.155 65.538 98.854 0v-413.139c-.001-27.256-22.175-49.43-49.432-49.43zm19.431 462.569c-1.071 25.78-37.793 25.768-38.854 0v-172.139c0-8.284-6.716-15-15-15h-68.862c-8.284 0-15 6.716-15 15v172.139c-1.071 25.779-37.793 25.768-38.854 0v-172.139c0-8.284-6.716-15-15-15h-68.861c-8.284 0-15 6.716-15 15v172.139c-1.07 25.788-37.793 25.76-38.854 0v-172.139c0-8.284-6.716-15-15-15h-103.284c-10.896 0-19.431-8.878-19.431-19.43v-206.698c1.257-25.682 37.788-25.572 38.854.129v172.139c0 8.284 6.716 15 15 15h68.862c8.284 0 15-6.716 15-15v-172.268c1.257-25.682 37.788-25.572 38.854.129v172.139c0 8.284 6.716 15 15 15h68.861c8.284 0 15-6.716 15-15v-172.268c1.258-25.691 37.788-25.563 38.854.129v172.139c0 8.284 6.716 15 15 15h68.862c8.284 0 15-6.716 15-15v-172.268c1.243-25.686 37.8-25.558 38.854.129v413.138z"/></svg>