<?xml version="1.0" encoding="UTF-8"?>
<svg id="Layer_2" data-name="Layer 2" xmlns="http://www.w3.org/2000/svg" viewBox="0 0 88.61 292.61">
  <defs>
    <style>
      .cls-1 {
        fill: #2c6fa0;
      }
    </style>
  </defs>
  <g id="Layer_1-2" data-name="Layer 1">
    <g id="SvgjsG7222">
      <path class="cls-1" d="M44.31,0h0S0,17.85,0,149.81s34.11,142.8,42.39,142.8c.32,0,.96,0,1.91-.32,.64,0,1.27,.32,1.91,.32,8.29,0,42.39-10.52,42.39-142.8S44.31,0,44.31,0Zm-10.6,276.35c-10.2-12.11-23.27-46.54-23.27-126.54,0-70.12,12.75-105.82,23.27-123.67v250.21Zm7,5.42c-1.18-.32-2.78-1.27-4-2.55V21.99c1.54-1.91,2.82-3.51,4-5.1V281.77Zm10-1.91c-1,.64-2,1.27-3,1.91V17.53c.67,.96,2,2.23,3,3.51V279.86Zm3-2.55V24.86c10.84,17.21,24.22,53.23,24.22,124.95,0,82.55-14.34,116.34-24.22,127.5Z"/>
    </g>
  </g>
</svg>