<?xml version="1.0" encoding="UTF-8"?>
<svg id="Layer_2" data-name="Layer 2" xmlns="http://www.w3.org/2000/svg" viewBox="0 0 394.16 519">
  <defs>
    <style>
      .cls-1 {
        fill: #4d4d4d;
      }
    </style>
  </defs>
  <g id="Layer_1-2" data-name="Layer 1">
    <g>
      <path class="cls-1" d="M331.71,154.86c18.67,15.44,69.87,57.78,61.53,87.5-3.86,13.35-19.19,17.62-30.56,21.8-26.18,9.49-53.08,17-80.41,22.53-22.11,4.48-69.35,14.29-60.59-24.82,3.44-15.12,15.64-27.95,25.45-39.32,20.13-23.67,40.67-48.7,64.97-68.1,1.98-1.57,4.38-1.98,6.47-1.67,4.07-1.67,8.97-1.46,13.14,2.09Z"/>
      <path class="cls-1" d="M304.18,466.89c-16.37-13.24-27.95-34-37.96-52.14-9.8-17.52-25.24-40.67-27.85-61.01-5.32-41.82,55.27-16.69,72.69-10.64,23.15,8.13,85.2,17.1,78.32,53.29-5.74,29.51-41.3,65.49-71.02,70.08-.31,.1-.73,0-1.15,0l-.31,.31c-.84,.42-1.77,.94-2.71,1.36-3.55,1.88-6.99,1.15-10.01-1.25Z"/>
      <path class="cls-1" d="M168.71,359.27c32.96-13.66,35.98,23.15,35.77,45.47-.31,26.59-1.15,53.29-3.13,79.78-.73,10.74-.31,23.67-10.53,30.45-12.62,8.34-36.92,1.77-49.96-2.29-.42-.21-.84-.42-1.25-.52-27.43-4.8-60.9-17.42-64.14-42.76-.31-2.92,.84-5.53,2.61-7.51,.84-1.57,1.67-3.02,2.61-4.38,4.07-5.63,8.76-10.64,13.45-15.75,7.93-11.78,16.48-23.15,25.55-34.1,13.14-15.85,29.3-40.26,49.02-48.39Z"/>
      <path class="cls-1" d="M173.51,244.97c-48.08-39.53-94.9-100.74-119.1-157.37C35.95,44.52,82.88,18.24,119.07,6.35c48.81-16.06,68.21-2.09,73.11,46.72,4.07,42.03,5.95,84.37,5.63,126.61-.1,17.83,4.9,46.62-5.53,62.68,1.67,6.57-8.24,11.26-13.87,6.78-.84-.63-1.67-1.46-2.61-2.19-.83-.52-1.56-1.15-2.29-1.98Z"/>
      <path class="cls-1" d="M168.29,306.18c3.86,17.1-8.24,23.99-22.42,30.45-25.24,11.37-51.73,20.44-78.32,27.95-15.44,4.28-39.11,14.5-54.02,3.13-11.26-8.55-11.99-26.38-13.04-39.32-2.29-28.89,2.09-97.82,42.13-100.74,19.61-1.36,44.11,16.16,60.18,25.34,21.38,12.31,44.32,26.38,60.28,45.68,2.4,1.35,4.38,3.75,5.21,7.51Z"/>
    </g>
  </g>
</svg>